<svg id="Group_35" data-name="Group 35" xmlns="http://www.w3.org/2000/svg" width="79.595" height="25.3" viewBox="0 0 79.595 25.3">
  <g id="Group_32" data-name="Group 32" transform="translate(0 0)">
    <path id="Path_240" data-name="Path 240" d="M213.009,314.594h3.151a.373.373,0,1,0,0-.745h-3.151a.373.373,0,1,0,0,.745m-1.626,0h.034a.356.356,0,0,0,.373-.373V303.516a.356.356,0,0,0-.373-.373h-.034a.356.356,0,0,0-.373.373v10.705a.356.356,0,0,0,.373.373" transform="translate(-210.511 -289.463)" fill="#fff"/>
    <path id="Path_241" data-name="Path 241" d="M208.724,287.327a.376.376,0,0,1-.378-.376v0a.378.378,0,1,1,.378.38" transform="translate(-208.346 -275.991)" fill="#fff"/>
    <path id="Path_242" data-name="Path 242" d="M208.724,245.808a.378.378,0,0,1-.378-.378v-.008a.378.378,0,0,1,.756,0v.008a.378.378,0,0,1-.378.378m0-1.323a.378.378,0,0,1-.378-.378V244.1a.378.378,0,0,1,.756,0v.008a.378.378,0,0,1-.378.378m0-1.323a.378.378,0,0,1-.378-.378v-.008a.378.378,0,0,1,.756,0v.008a.378.378,0,0,1-.378.378m0-1.323a.378.378,0,0,1-.378-.378v-.008a.378.378,0,0,1,.756,0v.008a.378.378,0,0,1-.378.378m0-1.323a.378.378,0,0,1-.378-.378v-.008a.378.378,0,0,1,.756,0v.008a.378.378,0,0,1-.378.378m0-1.323a.378.378,0,0,1-.378-.378v-.008a.378.378,0,0,1,.756,0v.008a.378.378,0,0,1-.378.378m0-1.323a.378.378,0,0,1-.378-.378v-.008a.378.378,0,0,1,.756,0v.008a.378.378,0,0,1-.378.378" transform="translate(-208.346 -235.789)" fill="#fff"/>
    <path id="Path_243" data-name="Path 243" d="M208.724,230.821a.376.376,0,0,1-.378-.376v0a.378.378,0,1,1,.378.38" transform="translate(-208.346 -230.063)" fill="#fff"/>
    <path id="Path_244" data-name="Path 244" d="M208.737,230.819a.378.378,0,0,1,0-.756h0a.378.378,0,1,1,0,.756" transform="translate(-208.355 -230.063)" fill="#fff"/>
    <path id="Path_245" data-name="Path 245" d="M215.981,236.11h-.008a.378.378,0,1,1,0-.756h.008a.378.378,0,1,1,0,.756m1.352,0a.378.378,0,0,1-.011-.756h.008a.378.378,0,0,1,.022.756h-.019m1.291-.378a.384.384,0,1,1,.2-.06l-.013.008a.376.376,0,0,1-.192.053m.936-.965a.378.378,0,0,1-.329-.563l0-.007a.378.378,0,0,1,.659.37l0,.007a.378.378,0,0,1-.33.193m.342-1.3a.377.377,0,0,1-.378-.377v-.008a.378.378,0,0,1,.756,0v.007a.379.379,0,0,1-.378.378m-.34-1.3a.378.378,0,0,1-.33-.193l0-.005a.378.378,0,0,1,.657-.373l0,.009a.378.378,0,0,1-.329.563m-.937-.966a.377.377,0,0,1-.2-.054l-.006,0a.378.378,0,0,1,.39-.648l.007,0a.378.378,0,0,1-.2.7m-1.29-.379h-.019a.378.378,0,0,1,.011-.756h.016a.378.378,0,0,1-.007.756m-1.36,0h-.008a.378.378,0,0,1,0-.756h.008a.378.378,0,1,1,0,.756" transform="translate(-214.234 -230.063)" fill="#fff"/>
    <path id="Path_246" data-name="Path 246" d="M208.728,259.083h0a.378.378,0,1,1,.38-.378.378.378,0,0,1-.38.378" transform="translate(-208.346 -253.036)" fill="#fff"/>
    <path id="Path_247" data-name="Path 247" d="M252.669,287.316a.376.376,0,0,1-.378-.376v0a.378.378,0,1,1,.378.38" transform="translate(-244.065 -275.983)" fill="#fff"/>
    <path id="Path_248" data-name="Path 248" d="M252.669,245.805a.378.378,0,0,1-.378-.378v-.008a.378.378,0,0,1,.756,0v.008a.378.378,0,0,1-.378.378m0-1.322a.378.378,0,0,1-.378-.378V244.1a.378.378,0,1,1,.756,0v.008a.378.378,0,0,1-.378.378m0-1.323a.378.378,0,0,1-.378-.378v-.008a.378.378,0,0,1,.756,0v.008a.378.378,0,0,1-.378.378m0-1.322a.378.378,0,0,1-.378-.378v-.008a.378.378,0,0,1,.756,0v.008a.378.378,0,0,1-.378.378m0-1.323a.378.378,0,0,1-.378-.378v-.008a.378.378,0,0,1,.756,0v.008a.378.378,0,0,1-.378.378m0-1.323a.378.378,0,0,1-.378-.378v-.008a.378.378,0,0,1,.756,0v.008a.378.378,0,0,1-.378.378m0-1.322a.378.378,0,0,1-.378-.378v-.008a.378.378,0,0,1,.756,0v.008a.378.378,0,0,1-.378.378" transform="translate(-244.065 -235.788)" fill="#fff"/>
    <path id="Path_249" data-name="Path 249" d="M252.669,230.821a.376.376,0,0,1-.378-.376v0a.378.378,0,1,1,.378.38" transform="translate(-244.065 -230.063)" fill="#fff"/>
    <path id="Path_250" data-name="Path 250" d="M252.682,230.819a.378.378,0,0,1,0-.756h0a.378.378,0,1,1,0,.756" transform="translate(-244.074 -230.063)" fill="#fff"/>
    <path id="Path_251" data-name="Path 251" d="M259.925,236.108h-.008a.378.378,0,0,1,0-.756h.008a.378.378,0,1,1,0,.756m1.352,0a.378.378,0,0,1-.011-.756h.008a.378.378,0,0,1,.022.756h-.019m1.291-.378a.384.384,0,1,1,.2-.06l-.013.008a.376.376,0,0,1-.192.053m.936-.965a.378.378,0,0,1-.329-.563l0-.007a.378.378,0,0,1,.659.37l0,.007a.378.378,0,0,1-.33.193m.342-1.3a.377.377,0,0,1-.378-.377v-.008a.378.378,0,0,1,.756,0v.007a.378.378,0,0,1-.378.378m-.34-1.3a.378.378,0,0,1-.33-.193l0-.005a.378.378,0,1,1,.657-.373l0,.008a.378.378,0,0,1-.329.563m-.937-.965a.376.376,0,0,1-.2-.054l-.006,0a.378.378,0,1,1,.39-.647l.007,0a.378.378,0,0,1-.2.7m-1.289-.379h-.019a.378.378,0,1,1,.022-.755h0a.378.378,0,0,1-.007.756m-1.36,0h-.008a.378.378,0,0,1,0-.756h.008a.378.378,0,1,1,0,.756" transform="translate(-249.952 -230.063)" fill="#fff"/>
    <path id="Path_252" data-name="Path 252" d="M252.673,259.077h0a.378.378,0,1,1,.38-.378.378.378,0,0,1-.38.378" transform="translate(-244.065 -253.031)" fill="#fff"/>
    <path id="Path_253" data-name="Path 253" d="M271.659,268.772a.378.378,0,0,1-.338-.209l0-.008a.378.378,0,0,1,.677-.337l0,.008a.378.378,0,0,1-.338.546M271,267.45a.378.378,0,0,1-.338-.209l0-.008a.378.378,0,1,1,.676-.337l0,.008a.378.378,0,0,1-.338.546m-.66-1.323a.378.378,0,0,1-.338-.209l0-.008a.378.378,0,1,1,.676-.337l0,.008a.378.378,0,0,1-.338.546" transform="translate(-258.423 -258.755)" fill="#fff"/>
    <path id="Path_254" data-name="Path 254" d="M280.927,287.326a.379.379,0,1,1,.335-.552l0,0a.378.378,0,0,1-.337.548" transform="translate(-267.032 -275.99)" fill="#fff"/>
    <path id="Path_255" data-name="Path 255" d="M546.3,287.316a.376.376,0,0,1-.378-.376v0a.378.378,0,1,1,.378.38" transform="translate(-482.729 -275.983)" fill="#fff"/>
    <path id="Path_256" data-name="Path 256" d="M546.3,245.805a.378.378,0,0,1-.378-.378v-.008a.378.378,0,0,1,.756,0v.008a.378.378,0,0,1-.378.378m0-1.322a.378.378,0,0,1-.378-.378V244.1a.378.378,0,1,1,.756,0v.008a.378.378,0,0,1-.378.378m0-1.323a.378.378,0,0,1-.378-.378v-.008a.378.378,0,0,1,.756,0v.008a.378.378,0,0,1-.378.378m0-1.322a.378.378,0,0,1-.378-.378v-.008a.378.378,0,0,1,.756,0v.008a.378.378,0,0,1-.378.378m0-1.323a.378.378,0,0,1-.378-.378v-.008a.378.378,0,0,1,.756,0v.008a.378.378,0,0,1-.378.378m0-1.323a.378.378,0,0,1-.378-.378v-.008a.378.378,0,0,1,.756,0v.008a.378.378,0,0,1-.378.378m0-1.322a.378.378,0,0,1-.378-.378v-.008a.378.378,0,0,1,.756,0v.008a.378.378,0,0,1-.378.378" transform="translate(-482.729 -235.788)" fill="#fff"/>
    <path id="Path_257" data-name="Path 257" d="M546.3,230.821a.376.376,0,0,1-.378-.376v0a.378.378,0,1,1,.378.38" transform="translate(-482.729 -230.063)" fill="#fff"/>
    <path id="Path_258" data-name="Path 258" d="M546.313,230.819a.378.378,0,0,1,0-.756h0a.378.378,0,1,1,0,.756" transform="translate(-482.738 -230.063)" fill="#fff"/>
    <path id="Path_259" data-name="Path 259" d="M553.556,236.108h-.008a.378.378,0,0,1,0-.756h.008a.378.378,0,1,1,0,.756m1.352,0a.378.378,0,0,1-.011-.756h.008a.378.378,0,0,1,.022.756h-.019m1.291-.378a.384.384,0,1,1,.2-.06l-.013.008a.377.377,0,0,1-.192.053m.936-.965a.378.378,0,0,1-.329-.563l0-.007a.378.378,0,0,1,.659.37l0,.007a.377.377,0,0,1-.33.193m.342-1.3a.377.377,0,0,1-.378-.377v-.008a.378.378,0,0,1,.756,0v.007a.378.378,0,0,1-.378.378m-.34-1.3a.378.378,0,0,1-.33-.193l0-.005a.378.378,0,0,1,.657-.373l0,.008a.378.378,0,0,1-.329.563m-.937-.965a.376.376,0,0,1-.2-.054l-.006,0a.378.378,0,1,1,.39-.647l.007,0a.378.378,0,0,1-.2.7m-1.289-.379h-.019a.378.378,0,0,1,.022-.755h0a.378.378,0,0,1-.007.756m-1.36,0h-.008a.378.378,0,0,1,0-.756h.008a.378.378,0,1,1,0,.756" transform="translate(-488.616 -230.063)" fill="#fff"/>
    <path id="Path_260" data-name="Path 260" d="M546.3,259.077h0a.378.378,0,1,1,.38-.378.378.378,0,0,1-.38.378" transform="translate(-482.729 -253.031)" fill="#fff"/>
    <path id="Path_261" data-name="Path 261" d="M565.29,268.772a.378.378,0,0,1-.338-.209l0-.008a.378.378,0,0,1,.677-.337l0,.008a.378.378,0,0,1-.338.546m-.66-1.323a.378.378,0,0,1-.338-.209l0-.008a.378.378,0,1,1,.676-.337l0,.008a.378.378,0,0,1-.338.546m-.66-1.323a.378.378,0,0,1-.338-.209l0-.008a.378.378,0,1,1,.676-.337l0,.008a.378.378,0,0,1-.338.546" transform="translate(-497.087 -258.755)" fill="#fff"/>
    <path id="Path_262" data-name="Path 262" d="M574.558,287.326a.379.379,0,1,1,.335-.552l0,0a.378.378,0,0,1-.337.548" transform="translate(-505.697 -275.99)" fill="#fff"/>
    <path id="Path_263" data-name="Path 263" d="M311.859,287.317a.376.376,0,0,1-.378-.376v0a.378.378,0,1,1,.378.38" transform="translate(-292.174 -275.983)" fill="#fff"/>
    <path id="Path_264" data-name="Path 264" d="M311.859,245.805a.378.378,0,0,1-.378-.378v-.008a.378.378,0,1,1,.756,0v.008a.378.378,0,0,1-.378.378m0-1.322a.378.378,0,0,1-.378-.378V244.1a.378.378,0,0,1,.756,0v.008a.378.378,0,0,1-.378.378m0-1.323a.378.378,0,0,1-.378-.378v-.008a.378.378,0,0,1,.756,0v.008a.378.378,0,0,1-.378.378m0-1.322a.378.378,0,0,1-.378-.378v-.008a.378.378,0,0,1,.756,0v.008a.378.378,0,0,1-.378.378m0-1.322a.378.378,0,0,1-.378-.378v-.008a.378.378,0,1,1,.756,0v.008a.378.378,0,0,1-.378.378m0-1.323a.378.378,0,0,1-.378-.378v-.008a.378.378,0,0,1,.756,0v.008a.378.378,0,0,1-.378.378m0-1.323a.378.378,0,0,1-.378-.378v-.008a.378.378,0,0,1,.756,0v.008a.378.378,0,0,1-.378.378" transform="translate(-292.174 -235.788)" fill="#fff"/>
    <path id="Path_265" data-name="Path 265" d="M311.859,230.821a.376.376,0,0,1-.378-.376v0a.378.378,0,1,1,.378.38" transform="translate(-292.174 -230.063)" fill="#fff"/>
    <path id="Path_266" data-name="Path 266" d="M297.742,230.819a.378.378,0,0,1,0-.756h0a.378.378,0,1,1,0,.756" transform="translate(-280.699 -230.063)" fill="#fff"/>
    <path id="Path_267" data-name="Path 267" d="M307.427,230.819h-.008a.378.378,0,1,1,0-.756h.008a.378.378,0,1,1,0,.756m-1.323,0H306.1a.378.378,0,0,1,0-.756h.008a.378.378,0,1,1,0,.756m-1.322,0h-.008a.378.378,0,1,1,0-.756h.008a.378.378,0,1,1,0,.756" transform="translate(-286.416 -230.063)" fill="#fff"/>
    <path id="Path_268" data-name="Path 268" d="M325.98,230.819a.378.378,0,0,1,0-.756h0a.378.378,0,1,1,0,.756" transform="translate(-303.651 -230.063)" fill="#fff"/>
    <path id="Path_269" data-name="Path 269" d="M297.742,287.336a.378.378,0,0,1,0-.756h0a.378.378,0,1,1,0,.756" transform="translate(-280.699 -276)" fill="#fff"/>
    <path id="Path_270" data-name="Path 270" d="M307.427,287.336h-.008a.378.378,0,1,1,0-.756h.008a.378.378,0,1,1,0,.756m-1.323,0H306.1a.378.378,0,0,1,0-.756h.008a.378.378,0,1,1,0,.756m-1.322,0h-.008a.378.378,0,1,1,0-.756h.008a.378.378,0,1,1,0,.756" transform="translate(-286.416 -276)" fill="#fff"/>
    <path id="Path_271" data-name="Path 271" d="M325.98,287.336a.378.378,0,0,1,0-.756h0a.378.378,0,1,1,0,.756" transform="translate(-303.651 -276)" fill="#fff"/>
    <path id="Path_272" data-name="Path 272" d="M380.265,230.831a.379.379,0,1,1,.378-.382v0a.378.378,0,0,1-.378.378" transform="translate(-347.775 -230.071)" fill="#fff"/>
    <path id="Path_273" data-name="Path 273" d="M380.265,245.805a.378.378,0,0,1-.378-.378v-.008a.378.378,0,1,1,.756,0v.008a.378.378,0,0,1-.378.378m0-1.322a.378.378,0,0,1-.378-.378V244.1a.378.378,0,0,1,.756,0v.008a.378.378,0,0,1-.378.378m0-1.323a.378.378,0,0,1-.378-.378v-.008a.378.378,0,1,1,.756,0v.008a.378.378,0,0,1-.378.378m0-1.322a.378.378,0,0,1-.378-.378v-.008a.378.378,0,1,1,.756,0v.008a.378.378,0,0,1-.378.378m0-1.323a.378.378,0,0,1-.378-.378v-.008a.378.378,0,1,1,.756,0v.008a.378.378,0,0,1-.378.378m0-1.322a.378.378,0,0,1-.378-.378v-.008a.378.378,0,1,1,.756,0v.008a.378.378,0,0,1-.378.378m0-1.323a.378.378,0,0,1-.378-.378v-.008a.378.378,0,0,1,.756,0v.008a.378.378,0,0,1-.378.378" transform="translate(-347.775 -235.788)" fill="#fff"/>
    <path id="Path_274" data-name="Path 274" d="M380.265,287.328a.379.379,0,1,1,.378-.382v0a.378.378,0,0,1-.378.378" transform="translate(-347.775 -275.992)" fill="#fff"/>
    <path id="Path_275" data-name="Path 275" d="M343.933,287.317a.376.376,0,0,1-.378-.376v0a.378.378,0,1,1,.378.38" transform="translate(-318.244 -275.983)" fill="#fff"/>
    <path id="Path_276" data-name="Path 276" d="M343.933,245.805a.378.378,0,0,1-.378-.378v-.008a.378.378,0,1,1,.756,0v.008a.378.378,0,0,1-.378.378m0-1.322a.378.378,0,0,1-.378-.378V244.1a.378.378,0,0,1,.756,0v.008a.378.378,0,0,1-.378.378m0-1.323a.378.378,0,0,1-.378-.378v-.008a.378.378,0,1,1,.756,0v.008a.378.378,0,0,1-.378.378m0-1.322a.378.378,0,0,1-.378-.378v-.008a.378.378,0,1,1,.756,0v.008a.378.378,0,0,1-.378.378m0-1.322a.378.378,0,0,1-.378-.378v-.008a.378.378,0,1,1,.756,0v.008a.378.378,0,0,1-.378.378m0-1.323a.378.378,0,0,1-.378-.378v-.008a.378.378,0,0,1,.756,0v.008a.378.378,0,0,1-.378.378m0-1.323a.378.378,0,0,1-.378-.378v-.008a.378.378,0,0,1,.756,0v.008a.378.378,0,0,1-.378.378" transform="translate(-318.244 -235.788)" fill="#fff"/>
    <path id="Path_277" data-name="Path 277" d="M343.933,230.821a.376.376,0,0,1-.378-.376v0a.378.378,0,1,1,.378.38" transform="translate(-318.244 -230.063)" fill="#fff"/>
    <path id="Path_278" data-name="Path 278" d="M350.8,241.52a.379.379,0,1,1,.314-.587l0,0a.378.378,0,0,1-.316.584" transform="translate(-323.828 -238.759)" fill="#fff"/>
    <path id="Path_279" data-name="Path 279" d="M355.246,248.453a.378.378,0,0,1-.319-.175l0-.006a.378.378,0,0,1,.637-.407l0,.006a.378.378,0,0,1-.318.581m-.7-1.1a.378.378,0,0,1-.318-.174l0-.006a.378.378,0,1,1,.636-.408l0,.006a.378.378,0,0,1-.317.582" transform="translate(-326.864 -243.5)" fill="#fff"/>
    <path id="Path_280" data-name="Path 280" d="M362.06,259.067a.379.379,0,1,1,.315-.586l0,0a.378.378,0,0,1-.317.582" transform="translate(-332.978 -253.022)" fill="#fff"/>
    <path id="Path_281" data-name="Path 281" d="M362.063,259.06a.377.377,0,0,1-.316-.582l0,0a.378.378,0,1,1,.314.585" transform="translate(-332.981 -253.017)" fill="#fff"/>
    <path id="Path_282" data-name="Path 282" d="M365.822,248.452a.378.378,0,0,1-.317-.583l0-.006a.378.378,0,0,1,.635.41l0,.007a.378.378,0,0,1-.318.173m.706-1.1a.378.378,0,0,1-.317-.582l0-.006a.378.378,0,0,1,.636.409l0,.007a.378.378,0,0,1-.318.173" transform="translate(-336.036 -243.5)" fill="#fff"/>
    <path id="Path_283" data-name="Path 283" d="M373.366,241.513a.377.377,0,0,1-.316-.582l0,0a.378.378,0,1,1,.314.585" transform="translate(-342.168 -238.754)" fill="#fff"/>
    <path id="Path_284" data-name="Path 284" d="M499.1,287.323a.376.376,0,0,1-.378-.375v0a.378.378,0,1,1,.378.379" transform="translate(-444.367 -275.99)" fill="#fff"/>
    <path id="Path_285" data-name="Path 285" d="M499.1,245.906a.377.377,0,0,1-.378-.377v-.008a.378.378,0,0,1,.756,0v.008a.377.377,0,0,1-.378.377m0-1.319a.377.377,0,0,1-.378-.377V244.2a.378.378,0,0,1,.756,0v.008a.377.377,0,0,1-.378.377m0-1.32a.377.377,0,0,1-.378-.377v-.008a.378.378,0,0,1,.756,0v.008a.377.377,0,0,1-.378.377m0-1.32a.377.377,0,0,1-.378-.377v-.008a.378.378,0,0,1,.756,0v.008a.377.377,0,0,1-.378.377m0-1.32a.377.377,0,0,1-.378-.377v-.008a.378.378,0,0,1,.756,0v.008a.377.377,0,0,1-.378.377m0-1.319a.377.377,0,0,1-.378-.377v-.008a.378.378,0,0,1,.756,0v.008a.377.377,0,0,1-.378.377m0-1.32a.377.377,0,0,1-.378-.377V237.6a.378.378,0,0,1,.756,0v.008a.377.377,0,0,1-.378.377" transform="translate(-444.367 -235.886)" fill="#fff"/>
    <path id="Path_286" data-name="Path 286" d="M499.1,230.955a.376.376,0,0,1-.378-.375v0a.378.378,0,1,1,.378.379" transform="translate(-444.367 -230.174)" fill="#fff"/>
    <path id="Path_287" data-name="Path 287" d="M499.115,230.953a.377.377,0,1,1,0-.754h0a.377.377,0,1,1,0,.754" transform="translate(-444.375 -230.174)" fill="#fff"/>
    <path id="Path_288" data-name="Path 288" d="M508.8,230.953h-.008a.377.377,0,1,1,0-.754h.008a.377.377,0,1,1,0,.754m-1.322,0h-.008a.377.377,0,1,1,0-.754h.008a.377.377,0,1,1,0,.754m-1.322,0h-.008a.377.377,0,1,1,0-.754h.008a.377.377,0,1,1,0,.754" transform="translate(-450.091 -230.174)" fill="#fff"/>
    <path id="Path_289" data-name="Path 289" d="M527.344,230.953a.377.377,0,1,1,0-.754h0a.377.377,0,1,1,0,.754" transform="translate(-467.32 -230.174)" fill="#fff"/>
    <path id="Path_290" data-name="Path 290" d="M499.115,287.343a.377.377,0,1,1,0-.754h0a.377.377,0,1,1,0,.754" transform="translate(-444.375 -276.008)" fill="#fff"/>
    <path id="Path_291" data-name="Path 291" d="M508.8,287.343h-.008a.377.377,0,1,1,0-.754h.008a.377.377,0,1,1,0,.754m-1.322,0h-.008a.377.377,0,1,1,0-.754h.008a.377.377,0,1,1,0,.754m-1.322,0h-.008a.377.377,0,1,1,0-.754h.008a.377.377,0,1,1,0,.754" transform="translate(-450.091 -276.008)" fill="#fff"/>
    <path id="Path_292" data-name="Path 292" d="M527.344,287.343a.377.377,0,1,1,0-.754h0a.377.377,0,1,1,0,.754" transform="translate(-467.32 -276.008)" fill="#fff"/>
    <path id="Path_293" data-name="Path 293" d="M499.115,259.148a.377.377,0,1,1,0-.754h0a.377.377,0,1,1,0,.754" transform="translate(-444.375 -253.091)" fill="#fff"/>
    <path id="Path_294" data-name="Path 294" d="M506.152,259.148h-.008a.377.377,0,1,1,0-.754h.008a.377.377,0,1,1,0,.754" transform="translate(-450.09 -253.091)" fill="#fff"/>
    <path id="Path_295" data-name="Path 295" d="M513.218,259.148a.377.377,0,1,1,0-.754h0a.377.377,0,1,1,0,.754" transform="translate(-455.838 -253.091)" fill="#fff"/>
    <path id="Path_296" data-name="Path 296" d="M417.162,230.957a.379.379,0,1,1,.359-.262v0a.378.378,0,0,1-.358.258" transform="translate(-377.765 -230.174)" fill="#fff"/>
    <path id="Path_297" data-name="Path 297" d="M400.558,245.934a.378.378,0,0,1-.358-.5l0-.007a.378.378,0,1,1,.717.239l0,.007a.378.378,0,0,1-.358.258m.444-1.323a.372.372,0,0,1-.121-.02.378.378,0,0,1-.237-.479l0-.007a.378.378,0,1,1,.716.241l0,.007a.378.378,0,0,1-.358.257m.444-1.323a.378.378,0,0,1-.358-.5l0-.007a.378.378,0,0,1,.716.241l0,.007a.378.378,0,0,1-.358.257m.444-1.323a.378.378,0,0,1-.358-.5l0-.007a.378.378,0,1,1,.716.242l0,.007a.378.378,0,0,1-.358.257m.444-1.323a.382.382,0,0,1-.12-.019.378.378,0,0,1-.239-.478l0-.007a.378.378,0,1,1,.717.239l0,.007a.378.378,0,0,1-.358.259m.444-1.323a.378.378,0,0,1-.358-.5l0-.007a.378.378,0,1,1,.717.24l0,.007a.379.379,0,0,1-.358.258m.444-1.323a.378.378,0,0,1-.358-.5l0-.007a.378.378,0,1,1,.716.241l0,.007a.378.378,0,0,1-.358.257" transform="translate(-364.269 -235.892)" fill="#fff"/>
    <path id="Path_298" data-name="Path 298" d="M398.192,287.463a.379.379,0,0,1-.358-.5.378.378,0,0,1,.718.237v0a.378.378,0,0,1-.358.258" transform="translate(-362.347 -276.102)" fill="#fff"/>
    <path id="Path_299" data-name="Path 299" d="M402.95,273.339a.378.378,0,0,1,0-.756h0a.378.378,0,0,1,0,.756" transform="translate(-366.212 -264.623)" fill="#fff"/>
    <path id="Path_300" data-name="Path 300" d="M412.7,273.339H412.7a.378.378,0,1,1,0-.756h.008a.378.378,0,1,1,0,.756m-1.332,0h-.008a.378.378,0,0,1,0-.756h.008a.378.378,0,1,1,0,.756m-1.332,0h-.008a.378.378,0,0,1,0-.756h.008a.378.378,0,1,1,0,.756" transform="translate(-371.971 -264.623)" fill="#fff"/>
    <path id="Path_301" data-name="Path 301" d="M431.394,273.339a.378.378,0,0,1,0-.756h0a.378.378,0,0,1,0,.756" transform="translate(-389.331 -264.623)" fill="#fff"/>
    <path id="Path_302" data-name="Path 302" d="M431.394,273.321a.376.376,0,0,1-.357-.256v0a.376.376,0,1,1,.358.26" transform="translate(-389.333 -264.607)" fill="#fff"/>
    <path id="Path_303" data-name="Path 303" d="M423.9,251a.378.378,0,0,1-.358-.258l0-.007a.378.378,0,1,1,.716-.241l0,.007a.378.378,0,0,1-.358.5m-.408-1.216a.378.378,0,0,1-.358-.258l0-.007a.378.378,0,1,1,.717-.241l0,.007a.378.378,0,0,1-.358.5m-.408-1.215a.378.378,0,0,1-.358-.257l0-.007a.378.378,0,0,1,.716-.241l0,.007a.378.378,0,0,1-.358.5m-.408-1.215a.378.378,0,0,1-.358-.258l0-.007a.378.378,0,0,1,.716-.241l0,.007a.378.378,0,0,1-.358.5" transform="translate(-382.246 -243.497)" fill="#fff"/>
    <path id="Path_304" data-name="Path 304" d="M420.5,240.872a.376.376,0,0,1-.357-.256v0a.378.378,0,1,1,.479.24.382.382,0,0,1-.121.02" transform="translate(-380.479 -238.232)" fill="#fff"/>
    <path id="Path_305" data-name="Path 305" d="M436.139,287.453a.376.376,0,0,1-.357-.256v0a.376.376,0,1,1,.358.26" transform="translate(-393.19 -276.094)" fill="#fff"/>
    <path id="Path_306" data-name="Path 306" d="M433.769,280.392a.378.378,0,0,1-.358-.257l0-.008a.378.378,0,1,1,.716-.241l0,.007a.378.378,0,0,1-.358.5" transform="translate(-391.262 -270.35)" fill="#fff"/>
    <path id="Path_307" data-name="Path 307" d="M431.4,273.342a.376.376,0,0,1-.357-.256v0a.376.376,0,1,1,.358.26" transform="translate(-389.339 -264.624)" fill="#fff"/>
    <path id="Path_308" data-name="Path 308" d="M462.566,286.7a.379.379,0,1,1-.121.738.376.376,0,0,1-.238-.477v0a.378.378,0,0,1,.358-.258" transform="translate(-414.669 -276.102)" fill="#fff"/>
    <path id="Path_309" data-name="Path 309" d="M467.6,237.246a.378.378,0,0,1,.358.5l0,.007a.378.378,0,1,1-.717-.239l0-.007a.378.378,0,0,1,.358-.258m-.444,1.323a.373.373,0,0,1,.121.02.378.378,0,0,1,.237.479l0,.007a.378.378,0,1,1-.716-.241l0-.007a.378.378,0,0,1,.358-.257m-.444,1.323a.378.378,0,0,1,.358.5l0,.008a.378.378,0,0,1-.716-.241l0-.007a.378.378,0,0,1,.358-.257m-.444,1.323a.378.378,0,0,1,.358.5l0,.007a.378.378,0,1,1-.716-.242l0-.007a.378.378,0,0,1,.358-.257m-.444,1.323a.382.382,0,0,1,.12.019.378.378,0,0,1,.239.478l0,.007a.378.378,0,1,1-.717-.239l0-.007a.378.378,0,0,1,.358-.259m-.444,1.323a.378.378,0,0,1,.358.5l0,.007a.378.378,0,1,1-.717-.24l0-.008a.379.379,0,0,1,.358-.258m-.444,1.323a.378.378,0,0,1,.358.5l0,.007a.378.378,0,1,1-.716-.241l0-.007a.378.378,0,0,1,.358-.257" transform="translate(-416.592 -235.901)" fill="#fff"/>
    <path id="Path_310" data-name="Path 310" d="M481.536,230.2a.379.379,0,1,1-.359.261v0a.378.378,0,0,1,.358-.258" transform="translate(-430.088 -230.174)" fill="#fff"/>
    <path id="Path_311" data-name="Path 311" d="M476.776,244.331a.378.378,0,0,1,0,.756h0a.378.378,0,0,1,0-.756" transform="translate(-426.22 -241.66)" fill="#fff"/>
    <path id="Path_312" data-name="Path 312" d="M448.332,244.331a.378.378,0,0,1,0,.756h0a.378.378,0,0,1,0-.756" transform="translate(-403.1 -241.66)" fill="#fff"/>
    <path id="Path_313" data-name="Path 313" d="M448.34,244.34a.376.376,0,0,1,.357.256v0a.376.376,0,1,1-.358-.26" transform="translate(-403.106 -241.667)" fill="#fff"/>
    <path id="Path_314" data-name="Path 314" d="M450.506,250.808a.378.378,0,0,1,.358.258l0,.007a.378.378,0,1,1-.716.241l0-.007a.378.378,0,0,1,.358-.5m.408,1.216a.378.378,0,0,1,.358.258l0,.007a.378.378,0,0,1-.717.241l0-.007a.378.378,0,0,1,.358-.5m.408,1.215a.378.378,0,0,1,.358.257l0,.007a.378.378,0,0,1-.716.241l0-.007a.378.378,0,0,1,.358-.5m.408,1.215a.378.378,0,0,1,.358.258l0,.007a.378.378,0,0,1-.716.241l0-.007a.378.378,0,0,1,.358-.5" transform="translate(-404.868 -246.925)" fill="#fff"/>
    <path id="Path_315" data-name="Path 315" d="M459.234,276.79a.376.376,0,0,1,.357.256v0a.376.376,0,1,1-.358-.26" transform="translate(-411.961 -268.043)" fill="#fff"/>
    <path id="Path_316" data-name="Path 316" d="M443.595,230.208a.376.376,0,0,1,.357.256v0a.376.376,0,1,1-.358-.26" transform="translate(-399.249 -230.181)" fill="#fff"/>
    <path id="Path_317" data-name="Path 317" d="M445.954,237.245a.378.378,0,0,1,.358.257l0,.007a.378.378,0,1,1-.716.241l0-.007a.378.378,0,0,1,.358-.5" transform="translate(-401.167 -235.901)" fill="#fff"/>
    <path id="Path_318" data-name="Path 318" d="M448.333,244.32a.376.376,0,0,1,.357.256v0a.376.376,0,1,1-.358-.26" transform="translate(-403.1 -241.651)" fill="#fff"/>
    <path id="Path_319" data-name="Path 319" d="M610.906,230.957a.379.379,0,1,1,.359-.262v0a.378.378,0,0,1-.358.258" transform="translate(-535.241 -230.174)" fill="#fff"/>
    <path id="Path_320" data-name="Path 320" d="M594.3,245.934a.378.378,0,0,1-.358-.5l0-.007a.378.378,0,1,1,.717.239l0,.007a.378.378,0,0,1-.358.258m.444-1.323a.37.37,0,0,1-.12-.02.378.378,0,0,1-.238-.479l0-.007a.378.378,0,1,1,.716.241l0,.007a.378.378,0,0,1-.358.257m.444-1.323a.378.378,0,0,1-.358-.5l0-.007a.378.378,0,1,1,.716.241l0,.007a.378.378,0,0,1-.358.257m.444-1.323a.378.378,0,0,1-.358-.5l0-.007a.378.378,0,1,1,.716.242l0,.007a.378.378,0,0,1-.358.257m.444-1.323a.378.378,0,0,1-.358-.5l0-.007a.378.378,0,1,1,.717.239l0,.007a.378.378,0,0,1-.359.259m.444-1.323a.378.378,0,0,1-.358-.5l0-.007a.378.378,0,0,1,.717.24l0,.007a.379.379,0,0,1-.359.258m.444-1.323a.378.378,0,0,1-.358-.5l0-.007a.378.378,0,0,1,.716.241l0,.007a.378.378,0,0,1-.358.257" transform="translate(-521.745 -235.892)" fill="#fff"/>
    <path id="Path_321" data-name="Path 321" d="M591.935,287.463a.379.379,0,1,1,.359-.262v0a.379.379,0,0,1-.358.258" transform="translate(-519.822 -276.102)" fill="#fff"/>
    <path id="Path_322" data-name="Path 322" d="M596.693,273.339a.378.378,0,0,1,0-.756h0a.378.378,0,0,1,0,.756" transform="translate(-523.687 -264.623)" fill="#fff"/>
    <path id="Path_323" data-name="Path 323" d="M606.448,273.339h-.008a.378.378,0,0,1,0-.756h.008a.378.378,0,0,1,0,.756m-1.332,0h-.008a.378.378,0,0,1,0-.756h.008a.378.378,0,1,1,0,.756m-1.332,0h-.008a.378.378,0,0,1,0-.756h.008a.378.378,0,0,1,0,.756" transform="translate(-529.446 -264.623)" fill="#fff"/>
    <path id="Path_324" data-name="Path 324" d="M625.137,273.339a.378.378,0,0,1,0-.756h0a.378.378,0,0,1,0,.756" transform="translate(-546.806 -264.623)" fill="#fff"/>
    <path id="Path_325" data-name="Path 325" d="M625.137,273.321a.376.376,0,0,1-.357-.256v0a.376.376,0,1,1,.358.26" transform="translate(-546.808 -264.607)" fill="#fff"/>
    <path id="Path_326" data-name="Path 326" d="M617.644,251a.378.378,0,0,1-.358-.258l0-.007a.378.378,0,1,1,.717-.241l0,.007a.378.378,0,0,1-.358.5m-.408-1.216a.378.378,0,0,1-.358-.258l0-.007a.378.378,0,0,1,.717-.241l0,.007a.378.378,0,0,1-.358.5m-.408-1.215a.378.378,0,0,1-.358-.257l0-.007a.378.378,0,0,1,.716-.241l0,.007a.378.378,0,0,1-.358.5m-.408-1.215a.378.378,0,0,1-.358-.258l0-.007a.378.378,0,0,1,.717-.241l0,.007a.378.378,0,0,1-.358.5" transform="translate(-539.721 -243.497)" fill="#fff"/>
    <path id="Path_327" data-name="Path 327" d="M614.243,240.872a.376.376,0,0,1-.357-.256v0a.378.378,0,1,1,.479.24.382.382,0,0,1-.121.02" transform="translate(-537.954 -238.232)" fill="#fff"/>
    <path id="Path_328" data-name="Path 328" d="M629.882,287.453a.376.376,0,0,1-.357-.256v0a.377.377,0,1,1,.358.26" transform="translate(-550.665 -276.094)" fill="#fff"/>
    <path id="Path_329" data-name="Path 329" d="M627.512,280.392a.378.378,0,0,1-.358-.257l0-.008a.378.378,0,0,1,.716-.241l0,.007a.378.378,0,0,1-.358.5" transform="translate(-548.737 -270.35)" fill="#fff"/>
    <path id="Path_330" data-name="Path 330" d="M625.144,273.342a.376.376,0,0,1-.357-.256v0a.376.376,0,1,1,.358.26" transform="translate(-546.814 -264.624)" fill="#fff"/>
  </g>
  <g id="Group_33" data-name="Group 33" transform="translate(7.885 13.579)">
    <path id="Path_331" data-name="Path 331" d="M268.566,349.376a.356.356,0,0,0,.373-.373.747.747,0,0,0-.051-.237l-.83-2.659a.367.367,0,0,0-.356-.254H264.23a.373.373,0,1,0,0,.745H267.4l.779,2.507a.347.347,0,0,0,.39.271" transform="translate(-261.35 -337.756)" fill="#fff"/>
    <path id="Path_332" data-name="Path 332" d="M250.8,314.22a.357.357,0,0,0,.39-.271l3.049-9.824,1.694,5.454a.369.369,0,0,0,.39.271.352.352,0,0,0,.356-.373.747.747,0,0,0-.051-.237l-2.016-6.386a.352.352,0,0,0-.356-.254.373.373,0,0,0-.373.254l-3.371,10.756a.749.749,0,0,0-.051.237.33.33,0,0,0,.339.373" transform="translate(-250.465 -302.6)" fill="#fff"/>
  </g>
  <path id="Path_333" data-name="Path 333" d="M303.7,314.922h.034a.356.356,0,0,0,.372-.373v-10.3h1.813c1.524,0,2.49.762,2.49,2.168s-.982,2.168-2.507,2.168h-.576a.373.373,0,1,0,0,.745h.813c1.66,0,2.71.8,2.71,2.405s-1.05,2.371-2.71,2.405h-.813a.373.373,0,1,0,0,.745h.881a3.093,3.093,0,0,0,3.422-3.151,2.713,2.713,0,0,0-2.151-2.846,2.4,2.4,0,0,0,1.711-2.473c0-1.779-1.253-2.913-3.2-2.913H303.7a.356.356,0,0,0-.373.373v10.671a.356.356,0,0,0,.373.373" transform="translate(-285.544 -289.757)" fill="#fff"/>
  <g id="Group_34" data-name="Group 34" transform="translate(26.563 13.68)">
    <path id="Path_334" data-name="Path 334" d="M403.355,361.076h3.151a.373.373,0,1,0,0-.745h-3.151a.373.373,0,1,0,0,.745" transform="translate(-393.11 -349.626)" fill="#fff"/>
    <path id="Path_335" data-name="Path 335" d="M394.669,314.594h.034a.356.356,0,0,0,.373-.373V303.516a.356.356,0,0,0-.373-.373h-.034a.356.356,0,0,0-.373.373v10.705a.356.356,0,0,0,.373.373" transform="translate(-386.05 -303.143)" fill="#fff"/>
    <path id="Path_336" data-name="Path 336" d="M350.616,336.952h5.149a.373.373,0,1,0,0-.745h-4.743V331.4h3.286a.373.373,0,1,0,0-.745h-3.693a.356.356,0,0,0-.373.373v5.556a.356.356,0,0,0,.373.373" transform="translate(-350.244 -325.502)" fill="#fff"/>
    <path id="Path_337" data-name="Path 337" d="M350.616,307.74h.034a.356.356,0,0,0,.373-.373V304.25h4.743a.373.373,0,0,0,0-.745h-5.149a.356.356,0,0,0-.373.373v3.489a.356.356,0,0,0,.373.373" transform="translate(-350.244 -303.437)" fill="#fff"/>
  </g>
  <path id="Path_338" data-name="Path 338" d="M433.6,338.74a2.944,2.944,0,0,0,3.151-3.049,3.016,3.016,0,0,0-2.05-2.981.69.69,0,0,0-.271-.068.376.376,0,0,0-.339.39c0,.136.085.271.3.39a2.313,2.313,0,0,1,1.575,2.27,2.245,2.245,0,0,1-2.371,2.321,2.283,2.283,0,0,1-2.253-1.338c-.068-.186-.169-.3-.373-.3h-.034a.342.342,0,0,0-.372.356.5.5,0,0,0,.034.169,3.094,3.094,0,0,0,3,1.846" transform="translate(-388.971 -313.44)" fill="#fff"/>
  <path id="Path_339" data-name="Path 339" d="M433.525,308.342a.373.373,0,0,0,.39-.39.385.385,0,0,0-.271-.356c-1.169-.559-1.66-1.1-1.66-2.185a1.979,1.979,0,0,1,2.134-2.083,2.246,2.246,0,0,1,2.219,1.406.381.381,0,0,0,.373.271.346.346,0,0,0,.373-.322c0-.83-1.118-2.084-2.964-2.084a2.8,2.8,0,0,0-2.914,2.812c0,1.321.525,2.083,2.05,2.863a.8.8,0,0,0,.271.068" transform="translate(-389.486 -289.021)" fill="#fff"/>
</svg>
