<svg id="Component_1_29" data-name="Component 1 – 29" xmlns="http://www.w3.org/2000/svg" width="133.196" height="41.406" viewBox="0 0 133.196 41.406">
  <path id="Path_1" data-name="Path 1" d="M262.634,310.868a3.157,3.157,0,0,0-3.156,3.151v7.623a3.156,3.156,0,0,0,6.312,0v-7.623A3.157,3.157,0,0,0,262.634,310.868Zm1.324,10.773a1.324,1.324,0,0,1-2.647,0v-7.622a1.324,1.324,0,0,1,2.647,0Z" transform="translate(-243.461 -286.028)" fill="#fff"/>
  <path id="Path_2" data-name="Path 2" d="M256.831,302.418a5.8,5.8,0,0,0-5.8,5.793v7.622a5.8,5.8,0,0,0,5.8,5.793h0a5.805,5.805,0,0,0,5.8-5.793v-7.622A5.8,5.8,0,0,0,256.831,302.418Zm3.97,13.416a3.97,3.97,0,0,1-7.941,0v-7.623a3.97,3.97,0,0,1,7.941,0Z" transform="translate(-237.658 -280.221)" fill="#fff"/>
  <path id="Path_3" data-name="Path 3" d="M306.7,303.465h-3.665a.413.413,0,0,0-.408.441v12.669a1.323,1.323,0,0,1-2.647,0V303.87a.406.406,0,0,0-.407-.4h-3.665a.406.406,0,0,0-.407.4v12.706a5.793,5.793,0,0,0,5.792,5.771h.011a5.793,5.793,0,0,0,5.8-5.771V303.87A.406.406,0,0,0,306.7,303.465Zm-1.425,13.113a3.97,3.97,0,0,1-7.941,0V305.692a.407.407,0,0,1,.814,0v10.886a3.156,3.156,0,0,0,6.312,0V305.692a.407.407,0,0,1,.814,0Z" transform="translate(-268.2 -280.94)" fill="#fff"/>
  <path id="Path_4" data-name="Path 4" d="M354.6,303.391h-3.637a.4.4,0,0,0-.4.4v8.376l-5.519-8.594a.4.4,0,0,0-.34-.185h-2.828a.4.4,0,0,0-.4.4v17.747a.4.4,0,0,0,.4.4h3.637a.4.4,0,0,0,.4-.4l0-8.385,5.521,8.6a.4.4,0,0,0,.34.186H354.6a.4.4,0,0,0,.4-.4V303.794A.4.4,0,0,0,354.6,303.391Zm-1.414,16.336v0c0,.008,0,.016,0,.024s0,.011,0,.017,0,.013,0,.018,0,.014,0,.021l0,.012c0,.009,0,.018-.007.026l0,.008c0,.009-.007.019-.011.028l-.006.012-.011.022-.014.023-.006.01a.307.307,0,0,1-.019.026l0,.005-.019.021-.008.008-.017.015-.013.012-.014.011-.019.013,0,0-.006,0a.345.345,0,0,1-.041.022l-.009,0a.373.373,0,0,1-.048.018l-.011,0-.039.008-.015,0a.471.471,0,0,1-.047,0h0l-.045,0-.012,0-.035-.007-.012,0-.033-.01-.011,0-.037-.017-.005,0a.384.384,0,0,1-.038-.023l-.013-.01-.023-.018-.013-.012-.023-.024-.008-.009a.335.335,0,0,1-.028-.038l0,0L344.1,306.983v12.744a.4.4,0,0,1-.808,0V305.605c0-.008,0-.016,0-.024v-.017l0-.018c0-.007,0-.014,0-.021l0-.012c0-.009,0-.018.007-.026l0-.008c0-.009.007-.019.01-.028l.006-.012.011-.022.014-.023.006-.01.019-.026,0-.005.019-.021.008-.008.017-.015.013-.012.014-.01.019-.014,0,0,.01-.006.021-.012.016-.008.02-.009.018-.007.019-.007.021-.005.017,0,.024,0,.015,0,.027,0h.055l.02,0,.019,0,.014,0,.024.006.01,0,.026.01.014.007.02.01.023.014.01.006.025.019.006,0,.021.019.008.008.015.017.012.013.01.014.014.019,0,0,8.347,12.962V305.609a.4.4,0,0,1,.808,0Z" transform="translate(-299.769 -280.89)" fill="#fff"/>
  <path id="Path_5" data-name="Path 5" d="M404.834,311.85h-3.342v13.311h3.342a3.427,3.427,0,0,0,3.426-3.42v-6.47A3.427,3.427,0,0,0,404.834,311.85Zm1.608,9.89a1.608,1.608,0,0,1-1.608,1.6H403.31v-9.68h1.523a1.608,1.608,0,0,1,1.608,1.6Z" transform="translate(-340.988 -286.703)" fill="#fff"/>
  <path id="Path_6" data-name="Path 6" d="M399.076,303.466h-5.564a.4.4,0,0,0-.4.4v17.747a.4.4,0,0,0,.4.4h5.564a6.054,6.054,0,0,0,6.052-6.042v-6.47A6.054,6.054,0,0,0,399.076,303.466Zm4.234,12.512a4.235,4.235,0,0,1-4.234,4.227H395.33a.4.4,0,0,1-.4-.4V305.684a.4.4,0,0,1,.4-.4h3.746a4.235,4.235,0,0,1,4.234,4.227Z" transform="translate(-335.23 -280.941)" fill="#fff"/>
  <path id="Path_7" data-name="Path 7" d="M216.989,318.56a3.79,3.79,0,0,1-2.724,1.135,4.132,4.132,0,0,1-3.93-2.409.407.407,0,0,1,.769-.27,3.352,3.352,0,0,0,3.161,1.865,2.981,2.981,0,0,0,2.143-.892,3.121,3.121,0,0,0,.889-2.268c-.032-2.508-1.581-3.065-3.374-3.711-1.742-.626-3.716-1.337-3.716-4.18a3.62,3.62,0,0,1,3.8-3.665h.014a3.943,3.943,0,0,1,3.862,2.486.408.408,0,0,1-.773.258,3.133,3.133,0,0,0-3.081-1.929,2.815,2.815,0,0,0-3,2.852c0,2.271,1.472,2.8,3.177,3.415,1.816.653,3.873,1.394,3.913,4.463a3.925,3.925,0,0,1-1.123,2.85m1.566-6.894a8.919,8.919,0,0,0-3.668-2.117c-1.591-.542-1.935-.847-1.935-1.717,0-.459.316-.995,1.207-.995a1.3,1.3,0,0,1,1.3.66l0,.007a2.394,2.394,0,0,1,.086.829c0,.056,0,.111,0,.163a.407.407,0,0,0,.408.407h3.615a.407.407,0,0,0,.407-.407,7.93,7.93,0,0,0-.265-2.4,5.85,5.85,0,0,0-5.618-3.751,5.382,5.382,0,0,0-5.638,5.488c0,3.761,2.624,5.14,4.91,5.921,1.785.606,2.146.943,2.146,2a1.225,1.225,0,0,1-1.277,1.309,1.732,1.732,0,0,1-1.355-.72,1.782,1.782,0,0,1-.1-.87.407.407,0,0,0-.407-.407h-3.615a.407.407,0,0,0-.408.407,7.365,7.365,0,0,0,.3,2.414,6.063,6.063,0,0,0,5.685,3.669,5.592,5.592,0,0,0,4.034-1.682,6.224,6.224,0,0,0,.185-8.2" transform="translate(-208.347 -280.17)" fill="#fff"/>
  <path id="Path_8" data-name="Path 8" d="M219.159,233.131a5.726,5.726,0,0,0-4.072-1.682h-5.354a.4.4,0,0,0-.4.4V249.6a.4.4,0,0,0,.4.4h3.637a.4.4,0,0,0,.4-.4v-6.655h1.313a5.747,5.747,0,0,0,4.072-9.813Zm-3.978.033h.021a.5.5,0,0,1-.01,1.009h-.026a.5.5,0,0,1,.015-1.008Zm-4.135,2.263a.505.505,0,0,1,1.01,0v.01a.505.505,0,0,1-1.01,0Zm0,1.765a.505.505,0,0,1,1.01,0v.01a.505.505,0,0,1-1.01,0Zm0,1.765a.505.505,0,0,1,1.01,0v.01a.505.505,0,0,1-1.01,0Zm.505,9.33a.5.5,0,0,1-.505-.5v-.005a.505.505,0,1,1,.505.507Zm.5-2.261a.505.505,0,0,1-1.01,0v-.01a.505.505,0,0,1,1.01,0Zm0-1.765a.505.505,0,0,1-1.01,0v-.01a.505.505,0,0,1,1.01,0Zm0-1.765a.505.505,0,0,1-1.01,0v-.01a.505.505,0,0,1,1.01,0Zm-.085-1.486a.505.505,0,0,1-.926-.279v-.01a.505.505,0,0,1,.971-.194.5.5,0,0,1,.041.2A.5.5,0,0,1,211.972,241.01Zm-.221-6.877a.5.5,0,0,1-.7-.46v-.005a.5.5,0,0,1,.476-.5l.029,0h.005a.5.5,0,0,1,.194.969Zm1.613-.97h.011a.5.5,0,1,1,0,1.009h-.011a.5.5,0,1,1,0-1.009Zm.018,8.067h-.011a.5.5,0,1,1,0-1.009h.011a.5.5,0,1,1,0,1.009Zm1.832,0h-.026a.5.5,0,0,1-.015-1.008h.011a.5.5,0,1,1,.029,1.008Zm.8-3.1a1.306,1.306,0,0,1-.929.384h-1.313v-2.622H215.1a1.311,1.311,0,0,1,.92,2.238Zm.459-4.215a.506.506,0,0,1,.693-.172l.01.006a.5.5,0,0,1-.523.863l-.008-.005A.5.5,0,0,1,216.474,233.909Zm.713,6.735-.017.01a.507.507,0,1,1,.017-.01Zm.725-5.629a.505.505,0,0,1,.689.189l.007.012a.5.5,0,0,1-.881.494l0-.007A.5.5,0,0,1,217.913,235.015Zm.7,4.156-.005.009a.5.5,0,0,1-.881-.494l.005-.009a.5.5,0,0,1,.881.494Zm.516-1.975a.505.505,0,0,1-1.01,0v-.011a.505.505,0,0,1,1.01,0Z" transform="translate(-209.021 -231.445)" fill="#fff"/>
  <path id="Path_9" data-name="Path 9" d="M311.618,235.885a.4.4,0,0,0,.4-.4v-3.63a.4.4,0,0,0-.4-.4H300.911a.4.4,0,0,0-.4.4h0v3.629a.4.4,0,0,0,.4.4h3.131v9.68h-3.131a.4.4,0,0,0-.4.4v3.63a.4.4,0,0,0,.4.4h10.707a.4.4,0,0,0,.4-.4v-3.63a.4.4,0,0,0-.4-.4h-3.131v-9.68Zm-1.823-2.723h.005a.505.505,0,1,1-.005,0Zm-7.06,1.008a.5.5,0,1,1-.005-1.008h.005a.5.5,0,1,1,0,1.008Zm0,14.117a.5.5,0,1,1-.005-1.008h.005a.5.5,0,1,1,0,1.008Zm1.768,0h-.01a.5.5,0,1,1,0-1.008h.01a.5.5,0,1,1,0,1.008Zm0-14.117h-.01a.5.5,0,1,1,0-1.008h.01a.5.5,0,1,1,0,1.008Zm1.767,14.117h-.01a.51.51,0,1,1,.01,0Zm-.005-11.6a.5.5,0,0,1,.505.5v.01a.505.505,0,0,1-1.01,0v-.01A.5.5,0,0,1,306.265,236.686Zm-.5-1.25v-.011a.505.505,0,0,1,1.01,0v.011a.505.505,0,0,1-1.01,0Zm.5,3.015a.5.5,0,0,1,.505.5v.01a.505.505,0,0,1-1.01,0v-.01A.5.5,0,0,1,306.265,238.451Zm0,1.765a.5.5,0,0,1,.505.5v.01a.505.505,0,0,1-1.01,0v-.01A.5.5,0,0,1,306.265,240.216Zm0,1.765a.5.5,0,0,1,.505.5v.01a.505.505,0,0,1-1.01,0v-.01A.5.5,0,0,1,306.265,241.98Zm0,1.764a.5.5,0,0,1,.505.5v.01a.505.505,0,0,1-1.01,0v-.01A.5.5,0,0,1,306.265,243.745Zm0,1.765a.5.5,0,0,1,.505.5v.01a.505.505,0,0,1-1.01,0v-.01A.5.5,0,0,1,306.265,245.509Zm.2-11.378a.5.5,0,0,1-.2.042.506.506,0,1,1-.005-1.011h.01a.5.5,0,0,1,.195.969Zm3.331,13.148h.005a.505.505,0,1,1-.005,0Zm-1.252.5a.5.5,0,0,1-.505.5h-.01a.5.5,0,1,1,0-1.008h.01A.5.5,0,0,1,308.543,247.784Zm-.505-13.613h-.01a.5.5,0,1,1,0-1.008h.01a.5.5,0,1,1,0,1.008Z" transform="translate(-271.637 -231.445)" fill="#fff"/>
  <path id="Path_10" data-name="Path 10" d="M360.005,231.449H357.2a.4.4,0,0,0-.339.185l-3.225,4.99-3.2-4.989a.4.4,0,0,0-.34-.186h-2.812a.4.4,0,0,0-.4.4V249.6a.4.4,0,0,0,.4.4h3.637a.4.4,0,0,0,.4-.4v-8.382l1.971,3.082a.4.4,0,0,0,.34.186h0a.4.4,0,0,0,.34-.185l1.995-3.093V249.6a.4.4,0,0,0,.4.4h3.637a.4.4,0,0,0,.4-.4V231.852A.4.4,0,0,0,360.005,231.449ZM349.1,248.286a.5.5,0,0,1-.5-.5v-.005a.5.5,0,1,1,.5.507Zm.5-2.261a.5.5,0,0,1-1.01,0v-.01a.5.5,0,0,1,1.01,0Zm0-1.765a.5.5,0,0,1-1.01,0v-.01a.5.5,0,0,1,1.01,0Zm0-1.765a.5.5,0,0,1-1.01,0v-.01a.5.5,0,0,1,1.01,0Zm0-1.765a.5.5,0,0,1-1.01,0v-.01a.5.5,0,0,1,1.01,0Zm0-1.765a.5.5,0,0,1-1.01,0v-.01a.5.5,0,0,1,1.01,0Zm0-1.765a.5.5,0,0,1-1.01,0v-.01a.5.5,0,0,1,1.01,0Zm0-1.764a.5.5,0,0,1-1.01,0v-.011a.5.5,0,0,1,1.01,0Zm-.5-1.263a.5.5,0,0,1-.5-.5v-.005a.5.5,0,1,1,.5.507Zm1.991,2.594a.506.506,0,1,1,.151-.7l0,0A.5.5,0,0,1,351.087,236.768Zm.941,1.461a.5.5,0,0,1-.7-.152l-.006-.008a.5.5,0,0,1,.85-.545l.006.008A.5.5,0,0,1,352.028,238.229Zm.94,1.463a.505.505,0,0,1-.7-.152l-.005-.008a.5.5,0,0,1,.85-.545l.006.008A.5.5,0,0,1,352.968,239.692Zm1.093,1.3-.006.007a.505.505,0,0,1-.151.151c-.008,0-.016.006-.024.011s-.023.011-.035.016a.472.472,0,0,1-.48-.028h0l-.01-.008a.5.5,0,0,1-.13-.126l0,0s-.008-.008-.011-.013a.513.513,0,0,1-.034-.067l0-.007a.5.5,0,0,1-.025-.078c0-.006,0-.011,0-.017a.529.529,0,0,1-.009-.073c0-.008,0-.017,0-.025a.492.492,0,0,1,.005-.072c0-.008,0-.017,0-.025a.487.487,0,0,1,.022-.081l0-.01a.5.5,0,0,1,.17-.223l.021-.016.007-.006c.011-.007.023-.011.034-.017a.526.526,0,0,1,.051-.026l.028-.009a.493.493,0,0,1,.07-.019l.014,0a.5.5,0,0,1,.568.609v0a.5.5,0,0,1-.027.083c0,.012-.011.023-.017.034S354.069,240.98,354.061,240.993Zm.942-1.46-.005.009a.5.5,0,0,1-.849-.548l.006-.008a.5.5,0,0,1,.848.547Zm.944-1.464-.005.008a.5.5,0,0,1-.85-.545l.006-.008a.5.5,0,0,1,.85.545Zm.94-1.457a.51.51,0,0,1-.428.232.5.5,0,0,1-.424-.775l0,0a.5.5,0,0,1,.849.547Zm1.8,11.173a.5.5,0,1,1,0-.005Zm0-1.76a.5.5,0,0,1-1.01,0v-.01a.5.5,0,0,1,1.01,0Zm0-1.765a.5.5,0,0,1-1.01,0v-.01a.5.5,0,0,1,1.01,0Zm0-1.765a.5.5,0,0,1-1.01,0v-.01a.5.5,0,0,1,1.01,0Zm0-1.765a.5.5,0,0,1-1.01,0v-.01a.5.5,0,0,1,1.01,0Zm0-1.765a.5.5,0,0,1-1.01,0v-.01a.5.5,0,0,1,1.01,0Zm0-1.765a.5.5,0,0,1-1.01,0v-.01a.5.5,0,0,1,1.01,0Zm0-1.764a.5.5,0,0,1-1.01,0v-.01a.5.5,0,0,1,1.01,0Zm0-1.765a.5.5,0,1,1,0-.005Z" transform="translate(-303.479 -231.445)" fill="#fff"/>
  <path id="Path_11" data-name="Path 11" d="M553.442,249.419l-3.7-7.4a5.748,5.748,0,0,0-3.14-10.567h-5.354a.4.4,0,0,0-.4.4V249.6a.4.4,0,0,0,.4.4h3.636a.4.4,0,0,0,.4-.4v-6.543l3.363,6.723a.4.4,0,0,0,.362.223h4.065a.4.4,0,0,0,.362-.583Zm-3.313-10.248-.005.009a.5.5,0,0,1-.88-.494l.005-.009a.5.5,0,0,1,.881.494Zm.516-1.984v.009a.505.505,0,0,1-1.01,0v-.011a.505.505,0,0,1,1.01,0Zm-1.215-2.173a.506.506,0,0,1,.689.189l.006.012a.5.5,0,0,1-.881.494l0-.007A.5.5,0,0,1,549.431,235.014Zm-1.438-1.106a.506.506,0,0,1,.693-.172l.01.006a.5.5,0,0,1-.523.863l-.008-.005A.5.5,0,0,1,547.992,233.908Zm.713,6.735-.017.01a.512.512,0,1,1,.017-.01Zm-.787-3.447a1.311,1.311,0,0,1-1.313,1.311h-1.313v-2.622h1.323A1.313,1.313,0,0,1,547.918,237.2Zm-1.2-4.032h.006a.5.5,0,0,1-.01,1.009h-.026a.5.5,0,1,1,.03-1.008Zm-3.645,15.122a.5.5,0,0,1-.5-.5v-.005a.505.505,0,1,1,.5.507Zm.505-2.261a.505.505,0,0,1-1.01,0v-.01a.505.505,0,0,1,1.01,0Zm0-1.765a.505.505,0,0,1-1.01,0v-.01a.505.505,0,0,1,1.01,0Zm0-1.765a.505.505,0,0,1-1.01,0v-.01a.505.505,0,0,1,1.01,0Zm0-1.765a.505.505,0,0,1-1.01,0v-.01a.505.505,0,0,1,1.01,0Zm0-1.765a.505.505,0,0,1-1.01,0v-.01a.505.505,0,0,1,1.01,0Zm0-1.765a.505.505,0,0,1-1.01,0v-.01a.505.505,0,0,1,1.01,0Zm0-1.765a.505.505,0,0,1-1.01,0v-.01a.505.505,0,0,1,1.01,0Zm-.505-1.263a.5.5,0,0,1-.5-.5v-.005a.505.505,0,1,1,.5.507Zm1.812-1.011h.011a.5.5,0,1,1,0,1.009h-.011a.5.5,0,1,1,0-1.009Zm.018,8.067h-.011a.5.5,0,1,1,0-1.009h.011a.5.5,0,1,1,0,1.009Zm1.822,0h-.015a.5.5,0,0,1-.015-1.008h.011a.5.5,0,1,1,.03,1.008Zm.773,1.771a.505.505,0,0,1-.452-.279l-.005-.011a.5.5,0,0,1,.9-.45l.005.01a.5.5,0,0,1-.452.729Zm1.108,1.712a.5.5,0,0,1-.677-.226l-.005-.01a.5.5,0,0,1,.9-.45l.005.01A.5.5,0,0,1,548.6,244.711Zm.658,1.818a.505.505,0,0,1-.452-.279l-.005-.01a.5.5,0,0,1,.9-.45l.005.01a.5.5,0,0,1-.452.729Zm1.107,1.705a.5.5,0,0,1-.227.054.505.505,0,1,1,.448-.736l0,0A.5.5,0,0,1,550.367,248.234Z" transform="translate(-436.689 -231.445)" fill="#fff"/>
  <path id="Path_12" data-name="Path 12" d="M505.716,235.885a.4.4,0,0,0,.4-.4v-3.63a.4.4,0,0,0-.4-.4H495.009a.4.4,0,0,0-.4.4V249.6a.4.4,0,0,0,.4.4h10.707a.4.4,0,0,0,.4-.4v-3.63a.4.4,0,0,0-.4-.4h-6.666v-2.622h3.131a.4.4,0,0,0,.4-.4v-3.63a.4.4,0,0,0-.4-.4h-3.131v-2.622Zm-1.823-2.723h.005a.5.5,0,1,1-.005,0Zm-1.768,0h.01a.5.5,0,1,1,0,1.008h-.01a.5.5,0,1,1,0-1.008Zm-1.768,0h.01a.5.5,0,1,1,0,1.008h-.01a.5.5,0,1,1,0-1.008Zm-4.035,2.263a.505.505,0,0,1,1.01,0v.01a.505.505,0,0,1-1.01,0Zm0,1.765a.505.505,0,0,1,1.01,0v.01a.505.505,0,0,1-1.01,0Zm0,1.765a.505.505,0,0,1,1.01,0v.01a.505.505,0,0,1-1.01,0Zm0,3.529a.505.505,0,0,1,1.01,0v.01a.505.505,0,0,1-1.01,0Zm0,1.765a.505.505,0,0,1,1.01,0v.01a.505.505,0,0,1-1.01,0Zm0,1.764a.505.505,0,0,1,1.01,0v.011a.505.505,0,0,1-1.01,0Zm.51,2.274a.512.512,0,0,1-.51-.5v-.005a.508.508,0,1,1,.51.509Zm.354-7.2a.505.505,0,0,1-.865-.354v-.01a.508.508,0,1,1,.865.364Zm-.16-6.952a.5.5,0,0,1-.7-.46v-.005a.5.5,0,0,1,.505-.5h.005a.5.5,0,0,1,.194.969Zm6.866,13.148h.005a.5.5,0,1,1-.005,0Zm-1.768,0h.01a.5.5,0,1,1,0,1.008h-.01a.5.5,0,1,1,0-1.008Zm-1.768,0h.01a.5.5,0,1,1,0,1.008h-.01a.5.5,0,1,1,0-1.008Zm-1.252.5a.5.5,0,0,1-.5.5h-.01a.5.5,0,1,1,0-1.008h.01A.5.5,0,0,1,499.1,247.784Zm1.252-7.563h.005a.505.505,0,1,1-.005,0Zm-1.252.5a.5.5,0,0,1-.505.5h-.01a.5.5,0,1,1,0-1.009h.01A.5.5,0,0,1,499.105,240.725Zm-.505-6.555h-.01a.5.5,0,1,1,0-1.008h.01a.5.5,0,1,1,0,1.008Z" transform="translate(-404.932 -231.445)" fill="#fff"/>
  <path id="Path_13" data-name="Path 13" d="M409.1,248.259a.509.509,0,0,1-.162.027.5.5,0,0,1-.476-.342l0-.005a.5.5,0,1,1,.641.32m-1.23-2.074,0-.01a.5.5,0,0,1,.957-.322l0,.01a.5.5,0,0,1-.317.639.511.511,0,0,1-.161.027.505.505,0,0,1-.479-.343m-.493-1.593-.018-.021-.014-.019a.5.5,0,0,1-.1-.3.556.556,0,0,1,.007-.08l0-.016c0-.007,0-.014,0-.021s.005-.021.008-.031l0-.007a.5.5,0,0,1,.947-.046l.008.02a.159.159,0,0,1,.006.016v.008c0,.012.007.023.01.035l0,.015c0,.009,0,.018,0,.028s0,.016,0,.024,0,.012,0,.018,0,.023,0,.035v.012c0,.013,0,.027,0,.04l0,.01c0,.013,0,.027-.006.04l0,.008a.377.377,0,0,1-.011.041v0a.5.5,0,0,1-.32.328.517.517,0,0,1-.162.027.5.5,0,0,1-.376-.17m-.647-1.794,0-.009a.505.505,0,0,1,.958-.321l0,.009a.505.505,0,0,1-.958.321m-.545-1.622,0-.009a.5.5,0,0,1,.958-.321l0,.009a.5.5,0,0,1-.958.321m-.207,3.583h-.011a.5.5,0,1,1,0-1.009h.011a.5.5,0,1,1,0,1.009m-1.781,0h-.01a.5.5,0,1,1,0-1.009h.01a.5.5,0,1,1,0,1.009m-1.78,0h-.01a.5.5,0,1,1,0-1.009h.01a.5.5,0,1,1,0,1.009m-.762-3.551a.5.5,0,0,1-.317-.639l0-.01a.5.5,0,0,1,.957.322l0,.01a.5.5,0,0,1-.64.317m.049,1.439,0,.01a.505.505,0,0,1-.957-.323l0-.01a.5.5,0,0,1,.957.323m-.781,2.022,0,0a.481.481,0,0,1-.047.028.5.5,0,0,1-.722-.6l0-.01a.505.505,0,0,1,.64-.317.5.5,0,0,1,.231.16l0,0,.016.022a.5.5,0,0,1-.119.712m-.406,1.506,0,.01a.5.5,0,0,1-.957-.322l0-.01a.5.5,0,0,1,.957.322m-.593,1.764,0,.005a.513.513,0,1,1,0-.005m2.005-9.132,0-.01a.505.505,0,0,1,.96.316l0,.01a.5.5,0,0,1-.959-.316m.595-1.768,0-.01a.505.505,0,0,1,.957.323l0,.01a.5.5,0,0,1-.957-.323m.593-1.764,0-.01a.5.5,0,0,1,.957.322l0,.01a.5.5,0,0,1-.957-.322m.593-1.764a.5.5,0,0,1,.959.316l0,.005a.5.5,0,0,1-.957-.321m1.793,2.474a.505.505,0,0,1-.956.326l0,0a.5.5,0,0,1,.958-.321m0,6.657H402.88l1.313-3.906Zm.543-5.039,0,.009a.5.5,0,0,1-.957.322l0-.009a.5.5,0,0,1,.957-.322m.545,1.622,0,.009a.5.5,0,0,1-.318.638.5.5,0,0,1-.161.027.506.506,0,0,1-.479-.344l0-.009a.5.5,0,0,1,.957-.321m5.247,10.215-5.958-17.716a.4.4,0,0,0-.383-.275h-2.615a.4.4,0,0,0-.383.275l-5.968,17.747a.4.4,0,0,0,.383.532h3.836a.4.4,0,0,0,.383-.275l1.094-3.254h3.925l1.095,3.254a.4.4,0,0,0,.383.275h3.837a.4.4,0,0,0,.371-.564" transform="translate(-337.569 -231.445)" fill="#fff"/>
  <path id="Path_14" data-name="Path 14" d="M597.094,248.259a.508.508,0,0,1-.162.027.5.5,0,0,1-.476-.342l0-.005a.5.5,0,1,1,.64.32m-1.23-2.074,0-.01a.5.5,0,0,1,.957-.322l0,.01a.5.5,0,0,1-.318.639.5.5,0,0,1-.64-.317m-.492-1.593-.018-.021-.014-.019a.5.5,0,0,1-.1-.3.519.519,0,0,1,.007-.08c0-.005,0-.011,0-.016s0-.014,0-.021,0-.021.008-.031l0-.007a.5.5,0,0,1,.947-.046l.008.02.006.016v.008c0,.012.007.023.01.035l0,.015c0,.009,0,.018,0,.028s0,.016,0,.024,0,.012,0,.018,0,.023,0,.035v.012c0,.013,0,.027,0,.04v.01c0,.013,0,.027-.006.04l0,.008c0,.014-.007.028-.011.041v0a.5.5,0,0,1-.32.328.515.515,0,0,1-.162.027.5.5,0,0,1-.376-.17m-.647-1.794,0-.009a.505.505,0,0,1,.958-.321l0,.009a.5.5,0,0,1-.957.321m-.545-1.622,0-.009a.5.5,0,0,1,.958-.321l0,.009a.5.5,0,0,1-.958.321m-.207,3.583h-.01a.5.5,0,1,1,0-1.009h.01a.5.5,0,1,1,0,1.009m-1.78,0h-.01a.5.5,0,1,1,0-1.009h.01a.5.5,0,1,1,0,1.009m-1.78,0H590.4a.5.5,0,1,1,0-1.009h.011a.5.5,0,1,1,0,1.009m-.762-3.551a.5.5,0,0,1-.318-.639l0-.01a.5.5,0,0,1,.957.322l0,.01a.505.505,0,0,1-.479.343.5.5,0,0,1-.161-.027m.049,1.439,0,.01a.5.5,0,0,1-.957-.323l0-.01a.505.505,0,0,1,.957.323m-.781,2.022,0,0a.446.446,0,0,1-.047.028.5.5,0,0,1-.721-.6l0-.01a.5.5,0,0,1,.87-.156l0,0,.017.022a.5.5,0,0,1-.119.712m-.406,1.506,0,.01a.505.505,0,0,1-.478.343.511.511,0,0,1-.162-.027.5.5,0,0,1-.317-.639l0-.01a.5.5,0,0,1,.957.322m-.593,1.764,0,.005a.491.491,0,1,1,0-.005m2.005-9.132,0-.01a.5.5,0,0,1,.959.316l0,.01a.5.5,0,0,1-.959-.316m.594-1.768,0-.01a.5.5,0,0,1,.957.323l0,.01a.505.505,0,0,1-.957-.323m.594-1.764,0-.01a.5.5,0,0,1,.957.322l0,.01a.505.505,0,0,1-.479.343.511.511,0,0,1-.161-.026.5.5,0,0,1-.317-.639m.593-1.764a.507.507,0,0,1,.64-.32.5.5,0,0,1,.319.636l0,.005a.5.5,0,0,1-.957-.321m1.792,2.474a.5.5,0,0,1-.956.326l0,0a.5.5,0,0,1,.957-.321m0,6.657h-2.627l1.313-3.906Zm.543-5.039,0,.009a.5.5,0,0,1-.957.322l0-.009a.5.5,0,0,1,.957-.322m.546,1.622,0,.009a.5.5,0,0,1-.958.321l0-.009a.5.5,0,0,1,.958-.321m5.246,10.215-5.958-17.716a.4.4,0,0,0-.383-.275h-2.615a.4.4,0,0,0-.383.275l-5.968,17.747a.4.4,0,0,0,.383.532h3.836a.4.4,0,0,0,.383-.275l1.095-3.254h3.925l1.094,3.254a.4.4,0,0,0,.383.275h3.837a.4.4,0,0,0,.371-.564" transform="translate(-466.671 -231.445)" fill="#fff"/>
  <path id="Path_15" data-name="Path 15" d="M452.375,233.805l-.008.026a.509.509,0,1,1,.008-.026m-.561,1.67,0,.008a.5.5,0,0,1-.958-.319l0-.011a.505.505,0,0,1,.957.322m-.559,1.662-.007.02a.513.513,0,1,1,.007-.02m-.56,1.664,0,.009a.505.505,0,0,1-.958-.321l0-.009a.5.5,0,0,1,.958.321m-.559,1.663,0,.009a.505.505,0,0,1-.479.344.5.5,0,0,1-.161-.027.5.5,0,0,1-.318-.638l0-.009a.505.505,0,0,1,.958.321m-.559,1.662,0,.009a.505.505,0,0,1-.958-.321l0-.009a.5.5,0,0,1,.958.321m-.559,1.662,0,.009a.5.5,0,0,1-.958-.32l0-.009a.5.5,0,0,1,.958.32m-.559,1.661,0,0a.5.5,0,1,1-.317-.641.5.5,0,0,1,.317.641m-1.154,2.8a.508.508,0,0,1-.162.027.5.5,0,0,1-.477-.341l0-.005a.5.5,0,1,1,.64.32m-1.23-2.074,0-.01a.5.5,0,0,1,.957-.322l0,.01a.5.5,0,0,1-.957.322m-.593-1.764,0-.01a.5.5,0,0,1,.957-.323l0,.01a.505.505,0,0,1-.957.323m-.594-1.765,0-.01a.5.5,0,0,1,.957-.322l0,.01a.5.5,0,0,1-.317.639.512.512,0,0,1-.162.027.5.5,0,0,1-.478-.344m-.593-1.764,0-.01a.5.5,0,0,1,.957-.323l0,.01a.5.5,0,0,1-.957.323m-.594-1.765,0-.01a.5.5,0,0,1,.957-.322l0,.01a.5.5,0,0,1-.317.639.511.511,0,0,1-.161.027.505.505,0,0,1-.479-.343m-.593-1.765,0-.01a.5.5,0,0,1,.957-.322l0,.01a.5.5,0,0,1-.318.639.5.5,0,0,1-.64-.317m-.594-1.764,0-.01a.5.5,0,0,1,.957-.322l0,.01a.5.5,0,0,1-.317.639.5.5,0,0,1-.64-.317m-.593-1.765,0-.005a.5.5,0,1,1,.64.32.516.516,0,0,1-.162.027.5.5,0,0,1-.476-.342m12.828-2.216a.4.4,0,0,0-.328-.168h-3.836a.4.4,0,0,0-.383.275l-3.057,9.09-3.057-9.09a.4.4,0,0,0-.383-.275h-3.836a.4.4,0,0,0-.383.532l5.968,17.747a.4.4,0,0,0,.383.275h2.615a.4.4,0,0,0,.383-.275l5.969-17.747a.4.4,0,0,0-.055-.364" transform="translate(-367.066 -231.437)" fill="#fff"/>
  <path id="Path_16" data-name="Path 16" d="M266.469,249.419l-3.7-7.4a5.748,5.748,0,0,0-3.14-10.567h-5.354a.4.4,0,0,0-.4.4V249.6a.4.4,0,0,0,.4.4h3.637a.4.4,0,0,0,.4-.4v-6.543l3.363,6.723a.4.4,0,0,0,.361.223h4.065a.4.4,0,0,0,.361-.583Zm-3.312-10.248-.005.009a.5.5,0,0,1-.881-.494l.005-.009a.5.5,0,0,1,.881.494Zm.516-1.984v.009a.505.505,0,0,1-1.01,0v-.011a.505.505,0,0,1,1.01,0Zm-1.215-2.173a.506.506,0,0,1,.689.189l.006.012a.5.5,0,0,1-.881.494l0-.007A.5.5,0,0,1,262.458,235.014Zm-1.438-1.106a.505.505,0,0,1,.693-.172l.01.006a.5.5,0,0,1-.523.863l-.008-.005A.5.5,0,0,1,261.019,233.908Zm.713,6.735-.017.01a.507.507,0,1,1,.017-.01Zm-.787-3.447a1.311,1.311,0,0,1-1.313,1.311h-1.313v-2.622h1.323A1.313,1.313,0,0,1,260.945,237.2Zm-1.2-4.032h.006a.5.5,0,0,1-.01,1.009h-.026a.5.5,0,1,1,.029-1.008ZM256.1,248.285a.5.5,0,0,1-.5-.5v-.005a.505.505,0,1,1,.5.507Zm.505-2.261a.505.505,0,0,1-1.01,0v-.01a.505.505,0,0,1,1.01,0Zm0-1.765a.505.505,0,0,1-1.01,0v-.01a.505.505,0,0,1,1.01,0Zm0-1.765a.505.505,0,0,1-1.01,0v-.01a.505.505,0,0,1,1.01,0Zm0-1.765a.505.505,0,0,1-1.01,0v-.01a.505.505,0,0,1,1.01,0Zm0-1.765a.505.505,0,0,1-1.01,0v-.01a.505.505,0,0,1,1.01,0Zm0-1.765a.505.505,0,0,1-1.01,0v-.01a.505.505,0,0,1,1.01,0Zm0-1.765a.505.505,0,0,1-1.01,0v-.01a.505.505,0,0,1,1.01,0Zm-.505-1.263a.5.5,0,0,1-.5-.5v-.005a.505.505,0,1,1,.5.507Zm1.813-1.011h.011a.5.5,0,1,1,0,1.009h-.011a.5.5,0,1,1,0-1.009Zm.018,8.067h-.011a.5.5,0,1,1,0-1.009h.011a.5.5,0,1,1,0,1.009Zm1.822,0h-.015a.5.5,0,0,1-.015-1.008h.011a.5.5,0,1,1,.029,1.008Zm.773,1.771a.506.506,0,0,1-.452-.279l-.005-.011a.5.5,0,0,1,.9-.45l.005.01a.5.5,0,0,1-.452.729Zm1.108,1.712a.5.5,0,0,1-.677-.226l-.005-.01a.5.5,0,0,1,.9-.45l.005.01A.5.5,0,0,1,261.63,244.711Zm.658,1.818a.505.505,0,0,1-.453-.279l-.005-.01a.505.505,0,0,1,.9-.45l.005.01a.5.5,0,0,1-.451.729Zm1.107,1.705a.506.506,0,1,1,.221-.682l0,0A.5.5,0,0,1,263.395,248.234Z" transform="translate(-239.612 -231.445)" fill="#fff"/>
</svg>
