<svg xmlns="http://www.w3.org/2000/svg" width="79.595" height="24.819" viewBox="0 0 79.595 24.819">
  <g id="Group_31" data-name="Group 31" transform="translate(0)">
    <g id="Group_26" data-name="Group 26" transform="translate(0 13.304)">
      <g id="Group_23" data-name="Group 23" transform="translate(0 0.182)">
        <path id="Path_135" data-name="Path 135" d="M218.619,311.789h-1.877v3.748h1.877a1.874,1.874,0,0,0,0-3.748Zm.553,2.43a.781.781,0,0,1-.556.23h-.786v-1.572h.791a.786.786,0,0,1,.55,1.342Z" transform="translate(-215.17 -310.217)" fill="#fff"/>
        <path id="Path_136" data-name="Path 136" d="M214.229,304.4a3.423,3.423,0,0,0-2.437-1.009h-3.2a.242.242,0,0,0-.242.242v10.639a.242.242,0,0,0,.242.242h2.176a.242.242,0,0,0,.242-.242v-3.99h.786a3.446,3.446,0,0,0,2.437-5.882Zm-2.434,4.794h-1.877v3.99a.242.242,0,1,1-.484,0v-8.463a.242.242,0,0,1,.242-.242h2.118a2.357,2.357,0,0,1,0,4.715Z" transform="translate(-208.346 -303.394)" fill="#fff"/>
      </g>
      <g id="Group_24" data-name="Group 24" transform="translate(8.351 0.196)">
        <path id="Path_137" data-name="Path 137" d="M265.1,313.738a1.875,1.875,0,0,0-1.871-1.874h-1.877v3.748h1.877A1.875,1.875,0,0,0,265.1,313.738Zm-1.318.556a.78.78,0,0,1-.556.23h-.786v-1.571h.791a.786.786,0,0,1,.55,1.342Z" transform="translate(-259.78 -310.293)" fill="#fff"/>
        <path id="Path_138" data-name="Path 138" d="M260.493,314.242l-2.212-4.438a3.446,3.446,0,0,0-1.879-6.335h-3.2a.242.242,0,0,0-.242.242V314.35a.242.242,0,0,0,.242.242h2.176a.242.242,0,0,0,.242-.242v-3.922l2.012,4.03a.242.242,0,0,0,.216.134h2.432a.242.242,0,0,0,.216-.35Zm-1.868-.764a.242.242,0,0,1-.324-.108l-2.046-4.1h-1.727v3.99a.242.242,0,0,1-.484,0V304.8a.242.242,0,0,1,.242-.242H256.4a2.358,2.358,0,0,1,.376,4.685l1.953,3.912A.242.242,0,0,1,258.625,313.478Z" transform="translate(-252.956 -303.469)" fill="#fff"/>
      </g>
      <g id="Group_25" data-name="Group 25" transform="translate(17.066)">
        <path id="Path_139" data-name="Path 139" d="M302.985,302.42a3.476,3.476,0,0,0-3.473,3.473v4.569a3.477,3.477,0,0,0,3.472,3.473h0a3.477,3.477,0,0,0,3.472-3.473v-4.569A3.477,3.477,0,0,0,302.985,302.42Zm2.376,8.042a2.376,2.376,0,0,1-4.752,0v-4.569a2.376,2.376,0,1,1,4.752,0Z" transform="translate(-299.512 -302.42)" fill="#fff"/>
        <path id="Path_140" data-name="Path 140" d="M309.862,310.882a1.891,1.891,0,0,0-1.889,1.889v4.569a1.889,1.889,0,0,0,3.777,0v-4.569A1.891,1.891,0,0,0,309.862,310.882Zm.792,6.458a.792.792,0,1,1-1.584,0v-4.569a.792.792,0,1,1,1.584,0Z" transform="translate(-306.389 -309.298)" fill="#fff"/>
      </g>
    </g>
    <path id="Path_141" data-name="Path 141" d="M214.138,282.635a.3.3,0,0,1-.3-.3v0a.3.3,0,1,1,.3.3" transform="translate(-212.808 -272.542)" fill="#fff"/>
    <path id="Path_142" data-name="Path 142" d="M214.138,243.083a.3.3,0,0,1-.3-.3v-.006a.3.3,0,1,1,.6,0v.006a.3.3,0,0,1-.3.3m0,1.058a.3.3,0,0,1-.3-.3v-.006a.3.3,0,0,1,.6,0v.006a.3.3,0,0,1-.3.3m0,1.058a.3.3,0,0,1-.3-.3v-.006a.3.3,0,1,1,.6,0v.006a.3.3,0,0,1-.3.3m0,1.058a.3.3,0,0,1-.3-.3v-.006a.3.3,0,0,1,.6,0v.006a.3.3,0,0,1-.3.3m0,1.058a.3.3,0,0,1-.3-.3v-.006a.3.3,0,0,1,.6,0v.006a.3.3,0,0,1-.3.3m0,1.058a.3.3,0,0,1-.3-.3v-.006a.3.3,0,1,1,.6,0v.006a.3.3,0,0,1-.3.3m0,1.058a.3.3,0,0,1-.3-.3v-.006a.3.3,0,0,1,.6,0v.006a.3.3,0,0,1-.3.3" transform="translate(-212.808 -240.39)" fill="#fff"/>
    <path id="Path_143" data-name="Path 143" d="M214.138,237.443a.3.3,0,0,1-.3-.3v0a.3.3,0,1,1,.3.3" transform="translate(-212.808 -235.809)" fill="#fff"/>
    <path id="Path_144" data-name="Path 144" d="M214.148,237.441a.3.3,0,1,1,0-.6h0a.3.3,0,0,1,0,.6" transform="translate(-212.815 -235.809)" fill="#fff"/>
    <path id="Path_145" data-name="Path 145" d="M219.938,237.441h-.006a.3.3,0,0,1,0-.6h.006a.3.3,0,1,1,0,.6m1.088,0h-.015a.3.3,0,0,1,.009-.6h.013a.3.3,0,0,1-.006.6m1.031.3a.3.3,0,0,1-.156-.044l-.005,0a.3.3,0,1,1,.312-.518l.006,0a.3.3,0,0,1-.157.561m.75.772a.3.3,0,0,1-.264-.154l0,0a.3.3,0,0,1,.525-.3l0,.007a.3.3,0,0,1-.263.45m.272,1.04a.3.3,0,0,1-.3-.3v-.006a.3.3,0,1,1,.6,0v.005a.3.3,0,0,1-.3.3m-.273,1.041a.3.3,0,0,1-.263-.45l0-.005a.3.3,0,0,1,.527.3l0,.006a.3.3,0,0,1-.264.154m-.749.771a.307.307,0,1,1,.164-.048l-.01.006a.3.3,0,0,1-.153.042m-1.033.3a.3.3,0,0,1-.009-.6h.007a.3.3,0,1,1,.018.6h-.015m-1.081,0h-.006a.3.3,0,1,1,0-.6h.006a.3.3,0,1,1,0,.6" transform="translate(-217.517 -235.809)" fill="#fff"/>
    <path id="Path_146" data-name="Path 146" d="M214.141,260.045h0a.3.3,0,1,1,.3-.3.3.3,0,0,1-.3.3" transform="translate(-212.808 -254.182)" fill="#fff"/>
    <path id="Path_147" data-name="Path 147" d="M208.831,241.987h1.692V238a.242.242,0,0,1,.242-.242h1.028a2.962,2.962,0,1,0,0-5.924h-2.962Zm1.934.484h-2.176a.242.242,0,0,1-.242-.242V231.59a.242.242,0,0,1,.242-.242h3.2a3.446,3.446,0,1,1,0,6.891h-.786v3.99a.242.242,0,0,1-.242.242" transform="translate(-208.347 -231.348)" fill="#fff"/>
    <path id="Path_148" data-name="Path 148" d="M220.456,245.027h.786a.786.786,0,0,0,.005-1.572h-.791Zm.786.484h-1.028a.242.242,0,0,1-.242-.242v-2.055a.242.242,0,0,1,.242-.242h1.028a1.269,1.269,0,1,1,0,2.539" transform="translate(-217.795 -240.796)" fill="#fff"/>
    <path id="Path_149" data-name="Path 149" d="M546.506,282.635a.3.3,0,0,1-.3-.3v0a.3.3,0,1,1,.3.3" transform="translate(-482.958 -272.542)" fill="#fff"/>
    <path id="Path_150" data-name="Path 150" d="M546.506,243.083a.3.3,0,0,1-.3-.3v-.006a.3.3,0,1,1,.6,0v.006a.3.3,0,0,1-.3.3m0,1.058a.3.3,0,0,1-.3-.3v-.006a.3.3,0,0,1,.6,0v.006a.3.3,0,0,1-.3.3m0,1.058a.3.3,0,0,1-.3-.3v-.006a.3.3,0,1,1,.6,0v.006a.3.3,0,0,1-.3.3m0,1.058a.3.3,0,0,1-.3-.3v-.006a.3.3,0,0,1,.6,0v.006a.3.3,0,0,1-.3.3m0,1.058a.3.3,0,0,1-.3-.3v-.006a.3.3,0,0,1,.6,0v.006a.3.3,0,0,1-.3.3m0,1.058a.3.3,0,0,1-.3-.3v-.006a.3.3,0,1,1,.6,0v.006a.3.3,0,0,1-.3.3m0,1.058a.3.3,0,0,1-.3-.3v-.006a.3.3,0,0,1,.6,0v.006a.3.3,0,0,1-.3.3" transform="translate(-482.958 -240.39)" fill="#fff"/>
    <path id="Path_151" data-name="Path 151" d="M546.506,237.443a.3.3,0,0,1-.3-.3v0a.3.3,0,1,1,.3.3" transform="translate(-482.958 -235.809)" fill="#fff"/>
    <path id="Path_152" data-name="Path 152" d="M546.516,237.441a.3.3,0,1,1,0-.6h0a.3.3,0,0,1,0,.6" transform="translate(-482.965 -235.809)" fill="#fff"/>
    <path id="Path_153" data-name="Path 153" d="M552.306,237.441H552.3a.3.3,0,0,1,0-.6h.006a.3.3,0,1,1,0,.6m1.088,0h-.015a.3.3,0,0,1,.018-.6h0a.3.3,0,0,1-.006.6m1.031.3a.3.3,0,0,1-.156-.044l-.005,0a.3.3,0,1,1,.312-.518l.006,0a.3.3,0,0,1-.157.561m.75.772a.3.3,0,0,1-.264-.154l0,0a.3.3,0,1,1,.525-.3l0,.007a.3.3,0,0,1-.263.45m.272,1.04a.3.3,0,0,1-.3-.3v-.006a.3.3,0,1,1,.6,0v.005a.3.3,0,0,1-.3.3m-.273,1.041a.3.3,0,0,1-.263-.45l0-.005a.3.3,0,0,1,.527.3l0,.006a.3.3,0,0,1-.264.154m-.749.771a.307.307,0,1,1,.164-.048l-.01.006a.3.3,0,0,1-.153.042m-1.033.3a.3.3,0,0,1-.009-.6h.007a.3.3,0,1,1,.018.6h-.015m-1.081,0H552.3a.3.3,0,1,1,0-.6h.006a.3.3,0,1,1,0,.6" transform="translate(-487.667 -235.809)" fill="#fff"/>
    <path id="Path_154" data-name="Path 154" d="M546.51,260.045h0a.3.3,0,1,1,.3-.3.3.3,0,0,1-.3.3" transform="translate(-482.958 -254.182)" fill="#fff"/>
    <path id="Path_155" data-name="Path 155" d="M560.64,265.686a.3.3,0,0,1-.271-.168l0-.006a.3.3,0,1,1,.541-.27l0,.006a.3.3,0,0,1-.27.437m.528,1.058a.3.3,0,0,1-.271-.168l0-.006a.3.3,0,1,1,.541-.27l0,.006a.3.3,0,0,1-.27.437m.528,1.058a.3.3,0,0,1-.271-.168l0-.006a.3.3,0,1,1,.541-.27l0,.006a.3.3,0,0,1-.136.405.3.3,0,0,1-.135.032" transform="translate(-494.443 -258.761)" fill="#fff"/>
    <path id="Path_156" data-name="Path 156" d="M569.11,282.642a.3.3,0,1,1,.268-.441l0,0a.3.3,0,0,1-.27.438" transform="translate(-501.33 -272.548)" fill="#fff"/>
    <path id="Path_157" data-name="Path 157" d="M552.824,245.027h.786a.786.786,0,0,0,.006-1.572h-.791Zm.786.484h-1.028a.242.242,0,0,1-.242-.242v-2.055a.242.242,0,0,1,.242-.242h1.028a1.269,1.269,0,1,1,0,2.539" transform="translate(-487.945 -240.796)" fill="#fff"/>
    <path id="Path_158" data-name="Path 158" d="M545.753,241.987h1.892l-2.138-4.288a.242.242,0,0,1,.1-.319,2.962,2.962,0,0,0-1.445-5.549H541.2v10.155h1.693V238a.242.242,0,0,1,.242-.242h.358a.242.242,0,0,1,.216.134Zm2.283.484H545.6a.242.242,0,0,1-.216-.134l-2.012-4.03v3.922a.242.242,0,0,1-.242.242h-2.176a.242.242,0,0,1-.242-.242V231.59a.242.242,0,0,1,.242-.242h3.2a3.446,3.446,0,0,1,1.879,6.335l2.212,4.438a.242.242,0,0,1-.216.349" transform="translate(-478.497 -231.348)" fill="#fff"/>
    <g id="Group_27" data-name="Group 27" transform="translate(18.122 0)">
      <path id="Path_159" data-name="Path 159" d="M316.749,282.656a.3.3,0,0,1-.3-.3v0a.3.3,0,1,1,.3.3" transform="translate(-314.333 -272.559)" fill="#fff"/>
      <path id="Path_160" data-name="Path 160" d="M316.749,243.1a.3.3,0,0,1-.3-.3V242.8a.3.3,0,1,1,.6,0v.006a.3.3,0,0,1-.3.3m0,1.058a.3.3,0,0,1-.3-.3v-.006a.3.3,0,1,1,.6,0v.006a.3.3,0,0,1-.3.3m0,1.058a.3.3,0,0,1-.3-.3v-.006a.3.3,0,1,1,.6,0v.006a.3.3,0,0,1-.3.3m0,1.058a.3.3,0,0,1-.3-.3v-.006a.3.3,0,1,1,.6,0v.006a.3.3,0,0,1-.3.3m0,1.058a.3.3,0,0,1-.3-.3v-.006a.3.3,0,0,1,.6,0v.006a.3.3,0,0,1-.3.3m0,1.058a.3.3,0,0,1-.3-.3v-.006a.3.3,0,1,1,.6,0v.006a.3.3,0,0,1-.3.3m0,1.058a.3.3,0,0,1-.3-.3v-.006a.3.3,0,1,1,.6,0v.006a.3.3,0,0,1-.3.3" transform="translate(-314.333 -240.407)" fill="#fff"/>
      <path id="Path_161" data-name="Path 161" d="M316.749,237.464a.3.3,0,0,1-.3-.3v0a.3.3,0,1,1,.3.3" transform="translate(-314.333 -235.827)" fill="#fff"/>
      <path id="Path_162" data-name="Path 162" d="M305.458,237.463a.3.3,0,1,1,0-.6h0a.3.3,0,1,1,0,.6" transform="translate(-305.154 -235.827)" fill="#fff"/>
      <path id="Path_163" data-name="Path 163" d="M311.089,237.463h-.006a.3.3,0,1,1,0-.6h.006a.3.3,0,0,1,0,.6m1.058,0h-.006a.3.3,0,1,1,0-.6h.006a.3.3,0,0,1,0,.6m1.058,0H313.2a.3.3,0,1,1,0-.6h.006a.3.3,0,0,1,0,.6" transform="translate(-309.727 -235.827)" fill="#fff"/>
      <path id="Path_164" data-name="Path 164" d="M328.045,237.463a.3.3,0,1,1,0-.6h0a.3.3,0,1,1,0,.6" transform="translate(-323.513 -235.827)" fill="#fff"/>
      <path id="Path_165" data-name="Path 165" d="M305.458,282.671a.3.3,0,1,1,0-.6h0a.3.3,0,1,1,0,.6" transform="translate(-305.154 -272.573)" fill="#fff"/>
      <path id="Path_166" data-name="Path 166" d="M311.089,282.671h-.006a.3.3,0,1,1,0-.6h.006a.3.3,0,0,1,0,.6m1.058,0h-.006a.3.3,0,1,1,0-.6h.006a.3.3,0,0,1,0,.6m1.058,0H313.2a.3.3,0,1,1,0-.6h.006a.3.3,0,0,1,0,.6" transform="translate(-309.727 -272.573)" fill="#fff"/>
      <path id="Path_167" data-name="Path 167" d="M328.045,282.671a.3.3,0,1,1,0-.6h0a.3.3,0,1,1,0,.6" transform="translate(-323.513 -272.573)" fill="#fff"/>
      <path id="Path_168" data-name="Path 168" d="M380.943,237.452a.3.3,0,1,1,.3-.305v0a.3.3,0,0,1-.3.3" transform="translate(-366.51 -235.817)" fill="#fff"/>
      <path id="Path_169" data-name="Path 169" d="M380.943,243.083a.3.3,0,0,1-.3-.3v-.006a.3.3,0,1,1,.6,0v.006a.3.3,0,0,1-.3.3m0,1.058a.3.3,0,0,1-.3-.3v-.006a.3.3,0,0,1,.6,0v.006a.3.3,0,0,1-.3.3m0,1.058a.3.3,0,0,1-.3-.3v-.006a.3.3,0,1,1,.6,0v.006a.3.3,0,0,1-.3.3m0,1.058a.3.3,0,0,1-.3-.3v-.006a.3.3,0,1,1,.6,0v.006a.3.3,0,0,1-.3.3m0,1.058a.3.3,0,0,1-.3-.3v-.006a.3.3,0,0,1,.6,0v.006a.3.3,0,0,1-.3.3m0,1.058a.3.3,0,0,1-.3-.3v-.006a.3.3,0,1,1,.6,0v.006a.3.3,0,0,1-.3.3m0,1.058a.3.3,0,0,1-.3-.3v-.006a.3.3,0,0,1,.6,0v.006a.3.3,0,0,1-.3.3" transform="translate(-366.51 -240.39)" fill="#fff"/>
      <path id="Path_170" data-name="Path 170" d="M380.943,282.643a.3.3,0,1,1,.3-.305v0a.3.3,0,0,1-.3.3" transform="translate(-366.51 -272.548)" fill="#fff"/>
      <path id="Path_171" data-name="Path 171" d="M351.881,282.635a.3.3,0,0,1-.3-.3v0a.3.3,0,1,1,.3.3" transform="translate(-342.888 -272.542)" fill="#fff"/>
      <path id="Path_172" data-name="Path 172" d="M351.881,243.083a.3.3,0,0,1-.3-.3v-.006a.3.3,0,1,1,.6,0v.006a.3.3,0,0,1-.3.3m0,1.058a.3.3,0,0,1-.3-.3v-.006a.3.3,0,1,1,.6,0v.006a.3.3,0,0,1-.3.3m0,1.058a.3.3,0,0,1-.3-.3v-.006a.3.3,0,1,1,.6,0v.006a.3.3,0,0,1-.3.3m0,1.058a.3.3,0,0,1-.3-.3v-.006a.3.3,0,1,1,.6,0v.006a.3.3,0,0,1-.3.3m0,1.058a.3.3,0,0,1-.3-.3v-.006a.3.3,0,0,1,.6,0v.006a.3.3,0,0,1-.3.3m0,1.058a.3.3,0,0,1-.3-.3v-.006a.3.3,0,1,1,.6,0v.006a.3.3,0,0,1-.3.3m0,1.058a.3.3,0,0,1-.3-.3v-.006a.3.3,0,0,1,.6,0v.006a.3.3,0,0,1-.3.3" transform="translate(-342.888 -240.39)" fill="#fff"/>
      <path id="Path_173" data-name="Path 173" d="M351.881,237.443a.3.3,0,0,1-.3-.3v0a.3.3,0,1,1,.3.3" transform="translate(-342.888 -235.809)" fill="#fff"/>
      <path id="Path_174" data-name="Path 174" d="M357.377,246a.3.3,0,1,1,.251-.47l0,0a.3.3,0,0,1-.253.467" transform="translate(-347.354 -242.766)" fill="#fff"/>
      <path id="Path_175" data-name="Path 175" d="M360.368,250.671a.3.3,0,0,1-.255-.139l0-.005a.3.3,0,0,1,.509-.327l0,.005a.3.3,0,0,1-.254.466m.562.877a.3.3,0,0,1-.255-.14l0-.005a.3.3,0,1,1,.509-.325l0,.005a.3.3,0,0,1-.255.465" transform="translate(-349.783 -246.558)" fill="#fff"/>
      <path id="Path_176" data-name="Path 176" d="M366.381,260.039a.3.3,0,1,1,.252-.468l0,0a.3.3,0,0,1-.254.466" transform="translate(-354.673 -254.175)" fill="#fff"/>
      <path id="Path_177" data-name="Path 177" d="M366.383,260.033a.3.3,0,0,1-.253-.465l0,0a.3.3,0,1,1,.251.468" transform="translate(-354.676 -254.171)" fill="#fff"/>
      <path id="Path_178" data-name="Path 178" d="M369.955,250.67a.3.3,0,0,1-.254-.466l0-.005a.3.3,0,1,1,.508.327l0,.005a.3.3,0,0,1-.254.139m-.565.877a.3.3,0,0,1-.253-.466l0-.005a.3.3,0,1,1,.508.328l0,.005a.3.3,0,0,1-.254.138" transform="translate(-357.12 -246.558)" fill="#fff"/>
      <path id="Path_179" data-name="Path 179" d="M375.425,246a.3.3,0,0,1-.253-.465l0,0a.3.3,0,1,1,.251.468" transform="translate(-362.025 -242.762)" fill="#fff"/>
      <path id="Path_180" data-name="Path 180" d="M352.013,241.987h1.693V231.832H352.4l-2.063,3.2a.242.242,0,0,1-.2.111h0a.242.242,0,0,1-.2-.111l-2.047-3.2h-1.309v10.155h1.693v-5.611a.242.242,0,0,1,.446-.13l1.422,2.227,1.435-2.228a.242.242,0,0,1,.445.131Zm1.934.484h-2.176a.242.242,0,0,1-.242-.242V237.2l-1.194,1.854a.242.242,0,0,1-.2.111h0a.242.242,0,0,1-.2-.112l-1.18-1.847v5.025a.242.242,0,0,1-.242.242h-2.176a.242.242,0,0,1-.242-.242V231.59a.242.242,0,0,1,.242-.242h1.683a.241.241,0,0,1,.2.111l1.916,2.991,1.93-2.991a.241.241,0,0,1,.2-.111h1.681a.242.242,0,0,1,.242.242v10.639a.242.242,0,0,1-.242.242" transform="translate(-338.426 -231.348)" fill="#fff"/>
    </g>
    <path id="Path_181" data-name="Path 181" d="M417.313,254.686l-.786,2.341H418.1Z" transform="translate(-377.556 -250.317)" fill="#fff"/>
    <g id="Group_28" data-name="Group 28" transform="translate(36.613 0)">
      <path id="Path_182" data-name="Path 182" d="M419.407,237.451a.3.3,0,0,1-.1-.016.3.3,0,1,1,.384-.193v0a.3.3,0,0,1-.286.206" transform="translate(-416.264 -235.816)" fill="#fff"/>
      <path id="Path_183" data-name="Path 183" d="M408.258,243.083a.3.3,0,0,1-.287-.4l0-.006a.3.3,0,1,1,.573.193l0,.006a.3.3,0,0,1-.286.206m-.355,1.058a.3.3,0,0,1-.287-.4l0-.006a.3.3,0,0,1,.573.194l0,.006a.3.3,0,0,1-.286.206m-.355,1.058a.3.3,0,0,1-.095-.015.3.3,0,0,1-.192-.382l0-.006a.3.3,0,0,1,.574.189l0,.006a.3.3,0,0,1-.287.208m-.355,1.058a.3.3,0,0,1-.287-.4l0-.006a.3.3,0,1,1,.573.193l0,.006a.3.3,0,0,1-.286.206m-.355,1.058a.3.3,0,0,1-.1-.016.3.3,0,0,1-.19-.383l0-.006a.3.3,0,1,1,.573.193l0,.006a.3.3,0,0,1-.286.206m-.355,1.058a.3.3,0,0,1-.095-.015.3.3,0,0,1-.193-.382l0-.006a.3.3,0,1,1,.574.189l0,.006a.3.3,0,0,1-.287.208m-.355,1.058a.3.3,0,0,1-.286-.4l0-.006a.3.3,0,1,1,.573.194l0,.006a.3.3,0,0,1-.286.206" transform="translate(-405.471 -240.39)" fill="#fff"/>
      <path id="Path_184" data-name="Path 184" d="M404.235,282.643a.3.3,0,0,1-.1-.016.3.3,0,1,1,.384-.193v0a.3.3,0,0,1-.287.206" transform="translate(-403.933 -272.549)" fill="#fff"/>
      <path id="Path_185" data-name="Path 185" d="M408.04,271.348a.3.3,0,0,1,0-.6h0a.3.3,0,1,1,0,.6" transform="translate(-407.024 -263.368)" fill="#fff"/>
      <path id="Path_186" data-name="Path 186" d="M413.712,271.348h-.006a.3.3,0,0,1,0-.6h.006a.3.3,0,0,1,0,.6m1.065,0h-.006a.3.3,0,0,1,0-.6h.006a.3.3,0,0,1,0,.6m1.065,0h-.006a.3.3,0,0,1,0-.6h.006a.3.3,0,0,1,0,.6" transform="translate(-411.63 -263.368)" fill="#fff"/>
      <path id="Path_187" data-name="Path 187" d="M430.789,271.348a.3.3,0,0,1,0-.6h0a.3.3,0,1,1,0,.6" transform="translate(-425.515 -263.368)" fill="#fff"/>
      <path id="Path_188" data-name="Path 188" d="M430.789,271.333a.3.3,0,0,1-.285-.2v0a.3.3,0,1,1,.383.192.309.309,0,0,1-.1.016" transform="translate(-425.517 -263.355)" fill="#fff"/>
      <path id="Path_189" data-name="Path 189" d="M423.818,250.564a.3.3,0,0,1-.286-.206l0-.005a.3.3,0,0,1,.573-.192l0,.005a.3.3,0,0,1-.287.4m.326.972a.3.3,0,0,1-.286-.206l0-.005a.3.3,0,0,1,.573-.193l0,.005a.3.3,0,0,1-.286.4m.326.972a.3.3,0,0,1-.286-.206l0-.005a.3.3,0,1,1,.573-.192l0,.005a.3.3,0,0,1-.287.4m.326.972a.3.3,0,0,1-.287-.206l0-.005a.3.3,0,1,1,.573-.192l0,.005a.3.3,0,0,1-.19.383.3.3,0,0,1-.1.016" transform="translate(-419.848 -246.471)" fill="#fff"/>
      <path id="Path_190" data-name="Path 190" d="M422.076,245.38a.3.3,0,0,1-.285-.2v0a.3.3,0,1,1,.286.208" transform="translate(-418.435 -242.261)" fill="#fff"/>
      <path id="Path_191" data-name="Path 191" d="M434.584,282.635a.3.3,0,0,1-.285-.2v0a.3.3,0,1,1,.383.192.308.308,0,0,1-.1.016" transform="translate(-428.601 -272.542)" fill="#fff"/>
      <path id="Path_192" data-name="Path 192" d="M432.689,276.989a.3.3,0,0,1-.286-.206l0-.006a.3.3,0,1,1,.573-.193l0,.006a.3.3,0,0,1-.287.4" transform="translate(-427.059 -267.949)" fill="#fff"/>
      <path id="Path_193" data-name="Path 193" d="M430.795,271.349a.3.3,0,0,1-.286-.209v0a.3.3,0,1,1,.381.2.306.306,0,0,1-.093.015" transform="translate(-425.521 -263.368)" fill="#fff"/>
      <path id="Path_194" data-name="Path 194" d="M591.264,241.987h1.785l-3.409-10.155h-1.217l-3.409,10.155H586.8l.655-1.951a.242.242,0,0,1,.229-.165h2.7a.241.241,0,0,1,.229.165Zm2.122.484h-2.3a.242.242,0,0,1-.229-.165l-.655-1.951h-2.349l-.655,1.951a.242.242,0,0,1-.229.165h-2.3a.242.242,0,0,1-.229-.319l3.572-10.639a.242.242,0,0,1,.229-.165h1.565a.242.242,0,0,1,.229.165l3.565,10.62a.242.242,0,0,1-.222.338" transform="translate(-550.646 -231.348)" fill="#fff"/>
    </g>
    <path id="Path_195" data-name="Path 195" d="M605.575,254.686l-.786,2.341h1.572Z" transform="translate(-530.576 -250.317)" fill="#fff"/>
    <g id="Group_29" data-name="Group 29" transform="translate(43.213 0)">
      <path id="Path_196" data-name="Path 196" d="M607.669,237.451a.3.3,0,0,1-.1-.016.3.3,0,1,1,.384-.193v0a.3.3,0,0,1-.286.206" transform="translate(-575.884 -235.816)" fill="#fff"/>
      <path id="Path_197" data-name="Path 197" d="M596.52,243.083a.3.3,0,0,1-.287-.4l0-.006a.3.3,0,1,1,.573.193l0,.006a.3.3,0,0,1-.286.206m-.355,1.058a.3.3,0,0,1-.287-.4l0-.006a.3.3,0,0,1,.573.194l0,.006a.3.3,0,0,1-.286.205m-.355,1.058a.3.3,0,0,1-.287-.4l0-.006a.3.3,0,0,1,.574.189l0,.006a.3.3,0,0,1-.287.208m-.355,1.058a.306.306,0,0,1-.1-.016.3.3,0,0,1-.19-.383l0-.006a.3.3,0,1,1,.573.193l0,.006a.3.3,0,0,1-.286.206m-.355,1.058a.3.3,0,0,1-.286-.4l0-.006a.3.3,0,0,1,.573.193l0,.006a.3.3,0,0,1-.286.206m-.355,1.058a.3.3,0,0,1-.287-.4l0-.006a.3.3,0,0,1,.574.189l0,.006a.3.3,0,0,1-.287.208m-.355,1.058a.3.3,0,0,1-.286-.4l0-.006a.3.3,0,0,1,.573.194l0,.006a.3.3,0,0,1-.286.206" transform="translate(-565.09 -240.39)" fill="#fff"/>
      <path id="Path_198" data-name="Path 198" d="M592.5,282.643a.3.3,0,0,1-.1-.016.3.3,0,1,1,.384-.193v0a.3.3,0,0,1-.286.206" transform="translate(-563.553 -272.549)" fill="#fff"/>
      <path id="Path_199" data-name="Path 199" d="M596.3,271.347a.3.3,0,1,1,0-.6h0a.3.3,0,1,1,0,.6" transform="translate(-566.644 -263.368)" fill="#fff"/>
      <path id="Path_200" data-name="Path 200" d="M601.973,271.347h-.006a.3.3,0,0,1,0-.6h.006a.3.3,0,0,1,0,.6m1.065,0h-.006a.3.3,0,0,1,0-.6h.006a.3.3,0,1,1,0,.6m1.065,0H604.1a.3.3,0,1,1,0-.6h.006a.3.3,0,1,1,0,.6" transform="translate(-571.25 -263.368)" fill="#fff"/>
      <path id="Path_201" data-name="Path 201" d="M619.051,271.347a.3.3,0,1,1,0-.6h0a.3.3,0,1,1,0,.6" transform="translate(-585.134 -263.368)" fill="#fff"/>
      <path id="Path_202" data-name="Path 202" d="M619.051,271.333a.3.3,0,0,1-.285-.2v0a.3.3,0,1,1,.286.208" transform="translate(-585.136 -263.355)" fill="#fff"/>
      <path id="Path_203" data-name="Path 203" d="M612.08,250.564a.3.3,0,0,1-.286-.206l0-.005a.3.3,0,1,1,.573-.192l0,.005a.3.3,0,0,1-.287.4m.326.972a.3.3,0,0,1-.286-.206l0-.005a.3.3,0,0,1,.573-.193l0,.005a.3.3,0,0,1-.286.4m.326.972a.3.3,0,0,1-.286-.206l0-.005a.3.3,0,0,1,.573-.193l0,.006a.3.3,0,0,1-.287.4m.326.972a.3.3,0,0,1-.287-.206l0-.005a.3.3,0,0,1,.573-.193l0,.005a.3.3,0,0,1-.19.383.3.3,0,0,1-.1.016" transform="translate(-579.468 -246.471)" fill="#fff"/>
      <path id="Path_204" data-name="Path 204" d="M610.338,245.38a.3.3,0,0,1-.285-.2v0a.3.3,0,1,1,.383.192.308.308,0,0,1-.1.016" transform="translate(-578.054 -242.261)" fill="#fff"/>
      <path id="Path_205" data-name="Path 205" d="M622.846,282.635a.3.3,0,0,1-.285-.2v0a.3.3,0,1,1,.383.192.309.309,0,0,1-.1.016" transform="translate(-588.221 -272.541)" fill="#fff"/>
      <path id="Path_206" data-name="Path 206" d="M620.951,276.989a.3.3,0,0,1-.286-.206l0-.006a.3.3,0,1,1,.573-.193l0,.006a.3.3,0,0,1-.287.4" transform="translate(-586.678 -267.948)" fill="#fff"/>
      <path id="Path_207" data-name="Path 207" d="M619.057,271.349a.3.3,0,0,1-.286-.208v0a.3.3,0,1,1,.381.2.309.309,0,0,1-.094.015" transform="translate(-585.141 -263.368)" fill="#fff"/>
      <path id="Path_208" data-name="Path 208" d="M443.175,241.987h1.217l3.409-10.155h-1.785l-2,5.967a.242.242,0,0,1-.458,0l-2-5.967h-1.785Zm1.391.484H443a.242.242,0,0,1-.229-.165L439.2,231.667a.242.242,0,0,1,.229-.319h2.3a.242.242,0,0,1,.229.165l1.829,5.449,1.829-5.449a.241.241,0,0,1,.229-.165h2.3a.242.242,0,0,1,.229.319L444.8,242.306a.242.242,0,0,1-.229.165" transform="translate(-439.188 -231.348)" fill="#fff"/>
      <path id="Path_209" data-name="Path 209" d="M462.42,282.635a.3.3,0,0,1-.285-.2v0a.3.3,0,1,1,.286.208" transform="translate(-457.826 -272.542)" fill="#fff"/>
      <path id="Path_210" data-name="Path 210" d="M449.143,243.083a.3.3,0,0,1-.286-.206l0-.006a.3.3,0,0,1,.573-.194l0,.006a.3.3,0,0,1-.19.383.306.306,0,0,1-.1.016m.355,1.058a.3.3,0,0,1-.287-.208l0-.006a.3.3,0,1,1,.574-.189l0,.006a.3.3,0,0,1-.287.4m.355,1.058a.3.3,0,0,1-.286-.206l0-.006a.3.3,0,1,1,.573-.193l0,.006a.3.3,0,0,1-.286.4m.355,1.058a.3.3,0,0,1-.286-.206l0-.006a.3.3,0,1,1,.573-.193l0,.006a.3.3,0,0,1-.286.4m.355,1.058a.3.3,0,0,1-.287-.208l0-.006a.3.3,0,0,1,.574-.189l0,.006a.3.3,0,0,1-.287.4m.355,1.058a.3.3,0,0,1-.286-.206l0-.006a.3.3,0,0,1,.573-.194l0,.006a.3.3,0,0,1-.189.383.307.307,0,0,1-.1.016m.355,1.058a.3.3,0,0,1-.286-.206l0-.006a.3.3,0,1,1,.573-.193l0,.006a.3.3,0,0,1-.287.4" transform="translate(-447.032 -240.39)" fill="#fff"/>
      <path id="Path_211" data-name="Path 211" d="M447.249,237.443a.3.3,0,0,1-.285-.2v0a.3.3,0,1,1,.383.192.308.308,0,0,1-.1.016" transform="translate(-445.494 -235.809)" fill="#fff"/>
      <path id="Path_212" data-name="Path 212" d="M477.6,237.445a.3.3,0,0,1-.288-.393l0-.013a.3.3,0,1,1,.284.406" transform="translate(-470.163 -235.81)" fill="#fff"/>
      <path id="Path_213" data-name="Path 213" d="M468.544,242.758a.306.306,0,0,1-.1-.016.3.3,0,0,1-.191-.382l0-.007a.3.3,0,1,1,.573.193v0a.3.3,0,0,1-.287.207m-.335,1a.306.306,0,1,1,.289-.212l0,.012a.3.3,0,0,1-.284.2m-.335,1a.3.3,0,0,1-.286-.4l0-.006a.3.3,0,0,1,.573.192l0,.006a.3.3,0,0,1-.287.206m-.335,1a.3.3,0,0,1-.287-.4l0-.006a.3.3,0,1,1,.573.193l0,.005a.3.3,0,0,1-.286.206m-.335,1a.3.3,0,0,1-.287-.4l0-.006a.3.3,0,1,1,.573.192l0,.006a.3.3,0,0,1-.287.206m-.335,1a.3.3,0,0,1-.1-.016.3.3,0,0,1-.19-.383l0-.005a.3.3,0,1,1,.573.192l0,.005a.3.3,0,0,1-.286.206" transform="translate(-461.443 -240.126)" fill="#fff"/>
      <path id="Path_214" data-name="Path 214" d="M465.091,274.706a.3.3,0,0,1-.1-.016.3.3,0,1,1,.384-.193v0a.3.3,0,0,1-.287.206" transform="translate(-459.996 -266.097)" fill="#fff"/>
    </g>
    <path id="Path_215" data-name="Path 215" d="M258.747,282.635a.3.3,0,0,1-.3-.3v0a.3.3,0,1,1,.3.3" transform="translate(-249.066 -272.542)" fill="#fff"/>
    <path id="Path_216" data-name="Path 216" d="M258.747,243.083a.3.3,0,0,1-.3-.3v-.006a.3.3,0,1,1,.6,0v.006a.3.3,0,0,1-.3.3m0,1.058a.3.3,0,0,1-.3-.3v-.006a.3.3,0,0,1,.6,0v.006a.3.3,0,0,1-.3.3m0,1.058a.3.3,0,0,1-.3-.3v-.006a.3.3,0,0,1,.6,0v.006a.3.3,0,0,1-.3.3m0,1.058a.3.3,0,0,1-.3-.3v-.006a.3.3,0,0,1,.6,0v.006a.3.3,0,0,1-.3.3m0,1.058a.3.3,0,0,1-.3-.3v-.006a.3.3,0,0,1,.6,0v.006a.3.3,0,0,1-.3.3m0,1.058a.3.3,0,0,1-.3-.3v-.006a.3.3,0,0,1,.6,0v.006a.3.3,0,0,1-.3.3m0,1.058a.3.3,0,0,1-.3-.3v-.006a.3.3,0,0,1,.6,0v.006a.3.3,0,0,1-.3.3" transform="translate(-249.066 -240.39)" fill="#fff"/>
    <path id="Path_217" data-name="Path 217" d="M258.747,237.443a.3.3,0,0,1-.3-.3v0a.3.3,0,1,1,.3.3" transform="translate(-249.066 -235.809)" fill="#fff"/>
    <path id="Path_218" data-name="Path 218" d="M258.758,237.441a.3.3,0,0,1,0-.6h0a.3.3,0,1,1,0,.6" transform="translate(-249.074 -235.809)" fill="#fff"/>
    <path id="Path_219" data-name="Path 219" d="M264.548,237.441h-.006a.3.3,0,1,1,0-.6h.006a.3.3,0,1,1,0,.6m1.088,0h-.015a.3.3,0,0,1,.018-.6h0a.3.3,0,0,1-.006.6m1.031.3a.3.3,0,0,1-.156-.044l-.005,0a.3.3,0,0,1,.312-.518l.006,0a.3.3,0,0,1-.157.561m.749.772a.3.3,0,0,1-.264-.154l0,0a.3.3,0,0,1,.525-.3l0,.007a.3.3,0,0,1-.263.45m.272,1.04a.3.3,0,0,1-.3-.3v-.006a.3.3,0,1,1,.6,0v.005a.3.3,0,0,1-.3.3m-.273,1.041a.3.3,0,0,1-.263-.45l0-.005a.3.3,0,0,1,.527.3l0,.006a.3.3,0,0,1-.264.154m-.749.771a.307.307,0,1,1,.164-.048l-.01.006a.3.3,0,0,1-.154.042m-1.032.3a.3.3,0,0,1-.009-.6h.007a.3.3,0,0,1,.018.6h-.015m-1.081,0h-.006a.3.3,0,1,1,0-.6h.006a.3.3,0,0,1,0,.6" transform="translate(-253.776 -235.809)" fill="#fff"/>
    <path id="Path_220" data-name="Path 220" d="M258.75,260.045h0a.3.3,0,1,1,.3-.3.3.3,0,0,1-.3.3" transform="translate(-249.066 -254.182)" fill="#fff"/>
    <path id="Path_221" data-name="Path 221" d="M272.881,265.686a.3.3,0,0,1-.271-.168l0-.006a.3.3,0,1,1,.541-.27l0,.006a.3.3,0,0,1-.27.437m.528,1.058a.3.3,0,0,1-.271-.168l0-.006a.3.3,0,1,1,.541-.27l0,.006a.3.3,0,0,1-.27.437m.528,1.058a.3.3,0,0,1-.271-.168l0-.006a.3.3,0,1,1,.541-.27l0,.006a.3.3,0,0,1-.136.405.3.3,0,0,1-.134.032" transform="translate(-260.552 -258.761)" fill="#fff"/>
    <path id="Path_222" data-name="Path 222" d="M281.352,282.642a.3.3,0,1,1,.268-.441v0a.3.3,0,0,1-.27.438" transform="translate(-267.439 -272.548)" fill="#fff"/>
    <path id="Path_223" data-name="Path 223" d="M265.065,245.027h.786a.786.786,0,0,0,.005-1.572h-.791Zm.786.484h-1.028a.242.242,0,0,1-.242-.242v-2.055a.242.242,0,0,1,.242-.242h1.028a1.269,1.269,0,1,1,0,2.539" transform="translate(-254.054 -240.796)" fill="#fff"/>
    <path id="Path_224" data-name="Path 224" d="M257.994,241.987h1.892l-2.137-4.288a.242.242,0,0,1,.1-.319,2.962,2.962,0,0,0-1.445-5.549H253.44v10.155h1.693V238a.242.242,0,0,1,.242-.242h.358a.242.242,0,0,1,.216.134Zm2.283.484h-2.432a.242.242,0,0,1-.216-.134l-2.012-4.03v3.922a.242.242,0,0,1-.242.242H253.2a.242.242,0,0,1-.242-.242V231.59a.242.242,0,0,1,.242-.242h3.2a3.446,3.446,0,0,1,1.879,6.335l2.212,4.438a.242.242,0,0,1-.216.349" transform="translate(-244.605 -231.348)" fill="#fff"/>
    <path id="Path_225" data-name="Path 225" d="M300.14,242.008h5.924v-1.693H304.19a.242.242,0,0,1-.242-.242v-6.287a.242.242,0,0,1,.242-.242h1.874v-1.693H300.14v1.693h1.874a.242.242,0,0,1,.242.242v6.287a.242.242,0,0,1-.242.242H300.14Zm6.166.484H299.9a.242.242,0,0,1-.242-.242v-2.176a.242.242,0,0,1,.242-.242h1.874v-5.8H299.9a.242.242,0,0,1-.242-.242v-2.176h0a.242.242,0,0,1,.242-.242h6.408a.242.242,0,0,1,.242.242v2.176a.242.242,0,0,1-.242.242h-1.874v5.8h1.874a.242.242,0,0,1,.242.242v2.176a.242.242,0,0,1-.242.242" transform="translate(-282.563 -231.365)" fill="#fff"/>
    <g id="Group_30" data-name="Group 30" transform="translate(35.161 0)">
      <path id="Path_226" data-name="Path 226" d="M494.885,241.987h5.924v-1.693h-3.99a.242.242,0,0,1-.242-.242V238a.242.242,0,0,1,.242-.242h1.874v-1.693H496.82a.242.242,0,0,1-.242-.242v-2.055a.242.242,0,0,1,.242-.242h3.99v-1.693h-5.924Zm6.166.484h-6.407a.242.242,0,0,1-.242-.242V231.59a.242.242,0,0,1,.242-.242h6.407a.242.242,0,0,1,.242.242v2.176a.242.242,0,0,1-.242.242h-3.99v1.572h1.874a.242.242,0,0,1,.242.242V238a.242.242,0,0,1-.242.242h-1.874v1.572h3.99a.242.242,0,0,1,.242.242v2.176a.242.242,0,0,1-.242.242" transform="translate(-476.014 -231.348)" fill="#fff"/>
      <path id="Path_227" data-name="Path 227" d="M500.193,282.634a.3.3,0,0,1-.3-.3v0a.3.3,0,1,1,.3.3" transform="translate(-480.476 -272.541)" fill="#fff"/>
      <path id="Path_228" data-name="Path 228" d="M500.193,243.083a.3.3,0,0,1-.3-.3v-.006a.3.3,0,0,1,.6,0v.006a.3.3,0,0,1-.3.3m0,1.058a.3.3,0,0,1-.3-.3v-.006a.3.3,0,0,1,.6,0v.006a.3.3,0,0,1-.3.3m0,1.058a.3.3,0,0,1-.3-.3v-.006a.3.3,0,0,1,.6,0v.006a.3.3,0,0,1-.3.3m0,1.058a.3.3,0,0,1-.3-.3v-.006a.3.3,0,0,1,.6,0v.006a.3.3,0,0,1-.3.3m0,1.058a.3.3,0,0,1-.3-.3v-.006a.3.3,0,0,1,.6,0v.006a.3.3,0,0,1-.3.3m0,1.058a.3.3,0,0,1-.3-.3v-.006a.3.3,0,1,1,.6,0v.006a.3.3,0,0,1-.3.3m0,1.058a.3.3,0,0,1-.3-.3v-.006a.3.3,0,0,1,.6,0v.006a.3.3,0,0,1-.3.3" transform="translate(-480.476 -240.39)" fill="#fff"/>
      <path id="Path_229" data-name="Path 229" d="M500.193,237.443a.3.3,0,0,1-.3-.3v0a.3.3,0,1,1,.3.3" transform="translate(-480.476 -235.809)" fill="#fff"/>
      <path id="Path_230" data-name="Path 230" d="M500.2,237.441a.3.3,0,0,1,0-.6h0a.3.3,0,1,1,0,.6" transform="translate(-480.483 -235.809)" fill="#fff"/>
      <path id="Path_231" data-name="Path 231" d="M505.835,237.441h-.006a.3.3,0,0,1,0-.6h.006a.3.3,0,0,1,0,.6m1.058,0h-.006a.3.3,0,0,1,0-.6h.006a.3.3,0,1,1,0,.6m1.058,0h-.006a.3.3,0,0,1,0-.6h.006a.3.3,0,1,1,0,.6" transform="translate(-485.056 -235.809)" fill="#fff"/>
      <path id="Path_232" data-name="Path 232" d="M522.791,237.441a.3.3,0,1,1,0-.6h0a.3.3,0,0,1,0,.6" transform="translate(-498.842 -235.809)" fill="#fff"/>
      <path id="Path_233" data-name="Path 233" d="M500.2,282.649a.3.3,0,0,1,0-.6h0a.3.3,0,1,1,0,.6" transform="translate(-480.483 -272.555)" fill="#fff"/>
      <path id="Path_234" data-name="Path 234" d="M505.835,282.649h-.006a.3.3,0,0,1,0-.6h.006a.3.3,0,0,1,0,.6m1.058,0h-.006a.3.3,0,0,1,0-.6h.006a.3.3,0,1,1,0,.6m1.058,0h-.006a.3.3,0,0,1,0-.6h.006a.3.3,0,1,1,0,.6" transform="translate(-485.056 -272.555)" fill="#fff"/>
      <path id="Path_235" data-name="Path 235" d="M522.791,282.649a.3.3,0,1,1,0-.6h0a.3.3,0,0,1,0,.6" transform="translate(-498.842 -272.555)" fill="#fff"/>
      <path id="Path_236" data-name="Path 236" d="M500.2,260.045a.3.3,0,0,1,0-.6h0a.3.3,0,1,1,0,.6" transform="translate(-480.483 -254.182)" fill="#fff"/>
      <path id="Path_237" data-name="Path 237" d="M505.834,260.045h-.006a.3.3,0,0,1,0-.6h.006a.3.3,0,1,1,0,.6" transform="translate(-485.056 -254.182)" fill="#fff"/>
      <path id="Path_238" data-name="Path 238" d="M511.488,260.045a.3.3,0,1,1,0-.6h0a.3.3,0,1,1,0,.6" transform="translate(-489.655 -254.182)" fill="#fff"/>
      <path id="Path_239" data-name="Path 239" d="M403,241.987h1.785l-3.409-10.155h-1.217l-3.409,10.155h1.785l.655-1.951a.242.242,0,0,1,.229-.165h2.7a.241.241,0,0,1,.229.165Zm2.122.484h-2.3a.242.242,0,0,1-.229-.165l-.655-1.951H399.6l-.655,1.951a.242.242,0,0,1-.229.165h-2.3a.242.242,0,0,1-.229-.319l3.572-10.639a.242.242,0,0,1,.229-.165h1.565a.242.242,0,0,1,.229.165l3.565,10.62a.242.242,0,0,1-.222.338" transform="translate(-396.174 -231.348)" fill="#fff"/>
    </g>
  </g>
</svg>
