<svg xmlns="http://www.w3.org/2000/svg" xmlns:xlink="http://www.w3.org/1999/xlink" width="122.358" height="26.368" viewBox="0 0 122.358 26.368">
  <defs>
    <clipPath id="clip-path">
      <rect id="Rectangle_11" data-name="Rectangle 11" width="122.358" height="26.368" transform="translate(49.833 10586.667)" fill="#fff"/>
    </clipPath>
    <clipPath id="clip-path-2">
      <rect id="Rectangle_42" data-name="Rectangle 42" width="122.358" height="26.368" fill="#fff"/>
    </clipPath>
  </defs>
  <g id="Mask_Group_1" data-name="Mask Group 1" transform="translate(-49.833 -10586.667)" clip-path="url(#clip-path)">
    <g id="Group_76" data-name="Group 76" transform="translate(49.833 10586.667)">
      <path id="Path_406" data-name="Path 406" d="M13741.549,1339.862l-.787-.665-5.139,6.092-5.139-6.092-.787.665,5.918,7.025Z" transform="translate(-13626.455 -1329.127)" fill="#fff"/>
      <path id="Path_407" data-name="Path 407" d="M1.031,1.032H95.989v24.3H1.031Zm95.991,0h24.3v24.3H97.021ZM0,26.368H122.358V0H0Z" fill="#fff"/>
      <path id="Path_408" data-name="Path 408" d="M930.018,785.737h2.108l-5.789,13.206h-2.093l-5.883-13.206h2.219l4.754,11.171Z" transform="translate(-911.456 -779.829)" fill="#fff"/>
      <g id="Group_75" data-name="Group 75">
        <g id="Group_74" data-name="Group 74" clip-path="url(#clip-path-2)">
          <path id="Path_409" data-name="Path 409" d="M2722.493,1212.048c.24-2.423,1.9-3.367,4.808-3.367,1.979,0,4.458.5,4.458,2.756v5.218c0,.573.259.831.831.831a3.539,3.539,0,0,0,.648-.075v1.3a9.573,9.573,0,0,1-1.444.11c-.925,0-1.536-.26-1.665-1.35a5.487,5.487,0,0,1-4.125,1.573c-3.218,0-3.94-1.665-3.94-2.923,0-1.775,1.054-2.681,4.162-3.013l2.108-.222c1.036-.11,1.684-.3,1.684-1.165,0-1.332-1.3-1.591-2.792-1.591-1.591,0-2.939.425-3,1.923Zm7.527,1.583c-.279.311-.78.444-1.812.573l-2.091.26c-1.443.185-2.2.573-2.2,1.591,0,.9.905,1.534,2.257,1.534,2.09,0,3.848-1.108,3.848-2.717Z" transform="translate(-2701.595 -1199.592)" fill="#fff"/>
          <path id="Path_410" data-name="Path 410" d="M4390.212,1212.308a2.091,2.091,0,0,0-2.335-2.312c-1.683,0-3.179.8-3.179,2.608v5.862h-1.848v-6.158a2.091,2.091,0,0,0-2.335-2.312,2.894,2.894,0,0,0-3.179,2.886v5.585h-1.85v-9.686h1.85v1.462h.037a4.335,4.335,0,0,1,3.792-1.8,3.718,3.718,0,0,1,3.292,1.8,4.642,4.642,0,0,1,3.922-1.8,3.425,3.425,0,0,1,3.681,3.425v6.6h-1.851Z" transform="translate(-4342.584 -1199.358)" fill="#fff"/>
          <path id="Path_411" data-name="Path 411" d="M6880.8,1223.465h1.85v1.348h.038a4.625,4.625,0,0,1,3.68-1.573,5.126,5.126,0,1,1,0,10.246,4.517,4.517,0,0,1-3.68-1.573h-.037v4.982h-1.85Zm5.327,1.333a3.569,3.569,0,1,0,3.551,3.569,3.345,3.345,0,0,0-3.551-3.569" transform="translate(-6829.053 -1214.043)" fill="#fff"/>
          <path id="Path_412" data-name="Path 412" d="M8566.383,770.8h1.85v2.035h-1.85Zm0,3.625h1.85v9.693h-1.85Z" transform="translate(-8501.961 -765.005)" fill="#fff"/>
          <path id="Path_413" data-name="Path 413" d="M9112.424,1208.937h1.85v1.775h.037a3.737,3.737,0,0,1,3.329-2.108,3.627,3.627,0,0,1,1.054.11v2a5.174,5.174,0,0,0-1.312-.184,2.888,2.888,0,0,0-3.113,3.179v4.918h-1.851Z" transform="translate(-9043.894 -1199.513)" fill="#fff"/>
          <path id="Path_414" data-name="Path 414" d="M10059.27,1213.976a3.425,3.425,0,0,0,3.57,3.07,3.269,3.269,0,0,0,3.125-1.713h1.96a5.5,5.5,0,1,1-4.993-7.088,5,5,0,0,1,5.252,5.494v.237Zm6.953-1.444a3.191,3.191,0,0,0-3.383-2.738,3.367,3.367,0,0,0-3.516,2.738Z" transform="translate(-9981.673 -1199.157)" fill="#fff"/>
        </g>
      </g>
    </g>
  </g>
</svg>
